# Blender v2.81 (sub 16) OBJ File: ''
# www.blender.org
mtllib oculus_cv1_controller_right_button_home.mtl
o oculus_cv1_controller_right_button_home
v 0.004836 0.006897 0.066315
v 0.003959 0.006984 0.066421
v 0.003959 0.006008 0.067222
v 0.004836 0.005922 0.067117
v 0.003073 0.006960 0.066392
v 0.003073 0.005985 0.067193
v 0.002212 0.006827 0.066230
v 0.002212 0.005852 0.067031
v 0.001407 0.006590 0.065941
v 0.001407 0.005614 0.066743
v 0.000691 0.006258 0.065537
v 0.000691 0.005282 0.066338
v 0.000091 0.005844 0.065032
v 0.000091 0.004868 0.065834
v -0.000370 0.005363 0.064447
v -0.000370 0.004387 0.065248
v -0.000675 0.004834 0.063803
v -0.000675 0.003858 0.064605
v -0.000811 0.004278 0.063126
v -0.000811 0.003302 0.063928
v -0.000774 0.003715 0.062442
v -0.000774 0.002740 0.063243
v -0.000564 0.003168 0.061776
v -0.000564 0.002193 0.062577
v -0.000191 0.002658 0.061154
v -0.000191 0.001682 0.061956
v 0.000333 0.002203 0.060601
v 0.000333 0.001228 0.061402
v 0.000986 0.001822 0.060137
v 0.000986 0.000847 0.060938
v 0.001743 0.001530 0.059781
v 0.001743 0.000554 0.060582
v 0.002576 0.001336 0.059545
v 0.002576 0.000361 0.060347
v 0.003452 0.001250 0.059440
v 0.003452 0.000274 0.060241
v 0.004339 0.001274 0.059469
v 0.004339 0.000298 0.060270
v 0.005200 0.001406 0.059631
v 0.005200 0.000431 0.060432
v 0.006005 0.001644 0.059919
v 0.006005 0.000668 0.060721
v 0.006721 0.001976 0.060324
v 0.006721 0.001000 0.061125
v 0.007321 0.002390 0.060828
v 0.007321 0.001414 0.061630
v 0.007782 0.002871 0.061414
v 0.007782 0.001895 0.062215
v 0.008087 0.003400 0.062057
v 0.008087 0.002424 0.062859
v 0.008223 0.003956 0.062734
v 0.008223 0.002980 0.063536
v 0.008186 0.004518 0.063419
v 0.008186 0.003543 0.064221
v 0.007976 0.005065 0.064085
v 0.007976 0.004090 0.064887
v 0.007603 0.005576 0.064707
v 0.007603 0.004600 0.065508
v 0.007079 0.006030 0.065260
v 0.007079 0.005055 0.066061
v 0.006426 0.006411 0.065724
v 0.006426 0.005436 0.066525
v 0.005669 0.006704 0.066080
v 0.005669 0.005728 0.066882
v 0.004810 0.006858 0.066218
v 0.003954 0.006942 0.066321
v 0.003958 0.006990 0.066379
v 0.004829 0.006904 0.066274
v 0.003088 0.006919 0.066293
v 0.003077 0.006967 0.066350
v 0.002246 0.006789 0.066134
v 0.002221 0.006834 0.066190
v 0.001460 0.006558 0.065852
v 0.001422 0.006599 0.065903
v 0.000760 0.006233 0.065457
v 0.000710 0.006269 0.065501
v 0.000174 0.005828 0.064964
v 0.000114 0.005857 0.064999
v -0.000277 0.005358 0.064392
v -0.000345 0.005379 0.064418
v -0.000574 0.004842 0.063763
v -0.000647 0.004854 0.063778
v -0.000707 0.004298 0.063102
v -0.000783 0.004301 0.063105
v -0.000671 0.003749 0.062433
v -0.000746 0.003742 0.062425
v -0.000466 0.003214 0.061782
v -0.000537 0.003198 0.061763
v -0.000101 0.002715 0.061175
v -0.000166 0.002691 0.061145
v 0.000410 0.002271 0.060634
v 0.000354 0.002239 0.060595
v 0.001048 0.001899 0.060181
v 0.001003 0.001861 0.060135
v 0.001788 0.001613 0.059833
v 0.001755 0.001570 0.059780
v 0.002602 0.001424 0.059603
v 0.002583 0.001378 0.059547
v 0.003458 0.001340 0.059500
v 0.003454 0.001292 0.059442
v 0.004324 0.001363 0.059528
v 0.004335 0.001315 0.059471
v 0.005166 0.001493 0.059687
v 0.005191 0.001448 0.059631
v 0.005952 0.001725 0.059969
v 0.005990 0.001683 0.059918
v 0.006651 0.002049 0.060364
v 0.006702 0.002013 0.060320
v 0.007238 0.002454 0.060857
v 0.007298 0.002425 0.060822
v 0.007688 0.002924 0.061429
v 0.007757 0.002903 0.061403
v 0.007986 0.003440 0.062057
v 0.008059 0.003428 0.062043
v 0.008119 0.003984 0.062719
v 0.008195 0.003981 0.062716
v 0.008083 0.004533 0.063388
v 0.008158 0.004540 0.063396
v 0.007878 0.005068 0.064039
v 0.007949 0.005084 0.064058
v 0.007513 0.005567 0.064646
v 0.007578 0.005591 0.064676
v 0.007002 0.006011 0.065187
v 0.007058 0.006043 0.065225
v 0.006364 0.006383 0.065640
v 0.006409 0.006421 0.065686
v 0.005624 0.006669 0.065988
v 0.005656 0.006712 0.066040
v 0.004796 0.006814 0.066186
v 0.003706 0.004130 0.062919
v 0.003951 0.006897 0.066287
v 0.003096 0.006874 0.066260
v 0.002264 0.006746 0.066103
v 0.001488 0.006517 0.065825
v 0.000797 0.006197 0.065435
v 0.000217 0.005797 0.064948
v -0.000228 0.005333 0.064383
v -0.000522 0.004823 0.063762
v -0.000653 0.004286 0.063108
v -0.000617 0.003743 0.062447
v -0.000415 0.003215 0.061805
v -0.000054 0.002722 0.061205
v 0.000451 0.002284 0.060671
v 0.001081 0.001916 0.060223
v 0.001812 0.001634 0.059879
v 0.002616 0.001447 0.059652
v 0.003461 0.001364 0.059551
v 0.004316 0.001387 0.059579
v 0.005148 0.001515 0.059735
v 0.005924 0.001744 0.060013
v 0.006615 0.002064 0.060404
v 0.007194 0.002464 0.060891
v 0.007640 0.002928 0.061455
v 0.007934 0.003438 0.062077
v 0.008065 0.003975 0.062730
v 0.008029 0.004518 0.063391
v 0.007827 0.005046 0.064033
v 0.007466 0.005539 0.064633
v 0.006961 0.005977 0.065167
v 0.006331 0.006345 0.065615
v 0.005600 0.006627 0.065959
vt 0.448577 0.662435
vt 0.439456 0.654909
vt 0.441698 0.663487
vt 0.456773 0.653958
vt 0.448070 0.653581
vt 0.455495 0.662733
vt 0.465215 0.656009
vt 0.468533 0.667321
vt 0.462253 0.664364
vt 0.479978 0.664836
vt 0.473081 0.659724
vt 0.474054 0.671404
vt 0.485612 0.670942
vt 0.482230 0.682218
vt 0.478583 0.676316
vt 0.484644 0.688730
vt 0.490191 0.678331
vt 0.494550 0.695102
vt 0.493223 0.686489
vt 0.485398 0.702527
vt 0.485696 0.695608
vt 0.492122 0.712247
vt 0.494173 0.703805
vt 0.483767 0.709285
vt 0.488407 0.720113
vt 0.480810 0.715565
vt 0.483295 0.727010
vt 0.476727 0.721086
vt 0.477189 0.732644
vt 0.465913 0.729262
vt 0.471815 0.725615
vt 0.459401 0.731676
vt 0.469801 0.737223
vt 0.453028 0.741582
vt 0.461642 0.740255
vt 0.452523 0.732728
vt 0.444326 0.741205
vt 0.438846 0.730799
vt 0.445603 0.732430
vt 0.428017 0.735439
vt 0.435883 0.739154
vt 0.427045 0.723759
vt 0.432566 0.727842
vt 0.422516 0.718847
vt 0.421121 0.730327
vt 0.410908 0.716833
vt 0.415487 0.724221
vt 0.418869 0.712945
vt 0.407876 0.708675
vt 0.415403 0.699554
vt 0.416455 0.706433
vt 0.415701 0.692635
vt 0.406549 0.700060
vt 0.417332 0.685878
vt 0.406926 0.691358
vt 0.420289 0.679598
vt 0.408977 0.682915
vt 0.417804 0.668152
vt 0.412692 0.675049
vt 0.429284 0.669548
vt 0.424372 0.674077
vt 0.435186 0.665901
vt 0.423910 0.662518
vt 0.431298 0.657940
vt 0.441952 0.664248
vt 0.448587 0.662624
vt 0.441805 0.663679
vt 0.455363 0.663496
vt 0.448620 0.663212
vt 0.461920 0.665090
vt 0.455442 0.662913
vt 0.468339 0.667426
vt 0.462114 0.664534
vt 0.468040 0.667933
vt 0.473880 0.671476
vt 0.473488 0.671914
vt 0.478525 0.676529
vt 0.478055 0.676883
vt 0.482095 0.682391
vt 0.481565 0.682647
vt 0.484452 0.688837
vt 0.483882 0.688984
vt 0.485506 0.695619
vt 0.484635 0.702395
vt 0.484919 0.695652
vt 0.483597 0.709146
vt 0.485218 0.702474
vt 0.480198 0.715072
vt 0.483041 0.708952
vt 0.476216 0.720520
vt 0.480705 0.715371
vt 0.471248 0.725087
vt 0.476655 0.720912
vt 0.465740 0.729127
vt 0.471602 0.725557
vt 0.465484 0.728597
vt 0.459294 0.731484
vt 0.459147 0.730914
vt 0.452512 0.732538
vt 0.445736 0.731667
vt 0.452479 0.731951
vt 0.439179 0.730073
vt 0.445657 0.732250
vt 0.432760 0.727737
vt 0.438985 0.730628
vt 0.433059 0.727231
vt 0.427218 0.723687
vt 0.427611 0.723248
vt 0.422574 0.718634
vt 0.423044 0.718280
vt 0.419004 0.712772
vt 0.417217 0.706179
vt 0.419534 0.712516
vt 0.416180 0.699511
vt 0.416647 0.706326
vt 0.416464 0.692768
vt 0.415593 0.699544
vt 0.417502 0.686017
vt 0.415881 0.692689
vt 0.420901 0.680091
vt 0.418058 0.686211
vt 0.424444 0.674250
vt 0.420394 0.679792
vt 0.424882 0.674643
vt 0.429497 0.669606
vt 0.435615 0.666566
vt 0.429851 0.670076
vt 0.435359 0.666036
vt 0.442058 0.664658
vt 0.450550 0.697582
vt 0.448644 0.663634
vt 0.455304 0.663915
vt 0.461780 0.665489
vt 0.467825 0.668297
vt 0.473207 0.672230
vt 0.477717 0.677137
vt 0.481184 0.682830
vt 0.483473 0.689090
vt 0.484497 0.695676
vt 0.484216 0.702335
vt 0.482642 0.708812
vt 0.479834 0.714857
vt 0.475901 0.720239
vt 0.470994 0.724749
vt 0.465301 0.728216
vt 0.459041 0.730505
vt 0.452455 0.731529
vt 0.445795 0.731248
vt 0.439319 0.729674
vt 0.433274 0.726866
vt 0.427892 0.722933
vt 0.423382 0.718026
vt 0.419915 0.712333
vt 0.417626 0.706073
vt 0.416602 0.699487
vt 0.416883 0.692827
vt 0.418457 0.686351
vt 0.421265 0.680306
vt 0.425198 0.674924
vt 0.430105 0.670414
vt 0.435798 0.666947
vn 0.0561 0.6338 0.7715
vn 0.2496 0.6148 0.7482
vn 0.2499 0.6151 0.7478
vn -0.1399 0.6284 0.7652
vn 0.0559 0.6334 0.7718
vn -0.1402 0.6285 0.7651
vn -0.3304 0.5992 0.7293
vn -0.5080 0.5467 0.6656
vn -0.3304 0.5991 0.7293
vn -0.6662 0.4732 0.5764
vn -0.5081 0.5468 0.6654
vn -0.7991 0.3815 0.4646
vn -0.9010 0.2753 0.3353
vn -0.7991 0.3817 0.4645
vn -0.9683 0.1585 0.1930
vn -0.9010 0.2752 0.3352
vn -0.9984 0.0356 0.0434
vn -0.9683 0.1586 0.1931
vn -0.9902 -0.0888 -0.1081
vn -0.9439 -0.2097 -0.2552
vn -0.8613 -0.3225 -0.3925
vn -0.8613 -0.3225 -0.3926
vn -0.7457 -0.4228 -0.5149
vn -0.7455 -0.4231 -0.5150
vn -0.6013 -0.5071 -0.6175
vn -0.4342 -0.5716 -0.6963
vn -0.6011 -0.5073 -0.6175
vn -0.2499 -0.6146 -0.7482
vn -0.4339 -0.5718 -0.6962
vn -0.0561 -0.6337 -0.7716
vn -0.2500 -0.6151 -0.7478
vn -0.0557 -0.6337 -0.7716
vn 0.1400 -0.6283 -0.7653
vn 0.3302 -0.5991 -0.7294
vn 0.1398 -0.6282 -0.7654
vn 0.5080 -0.5467 -0.6656
vn 0.3304 -0.5991 -0.7293
vn 0.6662 -0.4732 -0.5764
vn 0.5081 -0.5468 -0.6654
vn 0.7991 -0.3815 -0.4646
vn 0.9010 -0.2753 -0.3353
vn 0.7989 -0.3820 -0.4646
vn 0.9010 -0.2752 -0.3352
vn 0.9683 -0.1585 -0.1930
vn 0.9984 -0.0356 -0.0434
vn 0.9683 -0.1586 -0.1931
vn 0.9902 0.0888 0.1080
vn 0.9439 0.2097 0.2549
vn 0.9902 0.0889 0.1081
vn 0.8612 0.3226 0.3927
vn 0.9438 0.2098 0.2552
vn 0.7454 0.4231 0.5151
vn 0.8612 0.3224 0.3928
vn 0.6014 0.5072 0.6173
vn 0.7457 0.4230 0.5148
vn 0.4338 0.5721 0.6961
vn 0.4340 0.5720 0.6961
vn -0.0223 0.7097 -0.7042
vn -0.0005 0.7734 -0.6340
vn 0.0004 0.7737 -0.6336
vn 0.0377 0.6917 -0.7212
vn -0.0259 0.6957 -0.7178
vn 0.0532 0.7059 -0.7063
vn 0.0019 0.7683 -0.6400
vn -0.0009 0.7736 -0.6336
vn -0.0018 0.7761 -0.6307
vn 0.0440 0.6971 -0.7156
vn 0.0002 0.7723 -0.6353
vn 0.0622 0.7033 -0.7082
vn 0.0017 0.7716 -0.6361
vn 0.0828 0.7109 -0.6984
vn -0.0011 0.7733 -0.6341
vn 0.0944 0.7249 -0.6823
vn -0.0020 0.7730 -0.6344
vn 0.1099 0.7365 -0.6674
vn 0.0041 0.7726 -0.6349
vn 0.1085 0.7879 -0.6061
vn 0.1141 0.7516 -0.6496
vn -0.0019 0.7720 -0.6356
vn -0.0025 0.7725 -0.6350
vn 0.0917 0.8161 -0.5706
vn 0.1160 0.7806 -0.6142
vn 0.0720 0.8236 -0.5625
vn 0.0033 0.7741 -0.6330
vn 0.0551 0.8312 -0.5532
vn -0.0010 0.7723 -0.6353
vn 0.0015 0.7743 -0.6328
vn -0.0015 0.7717 -0.6360
vn 0.0636 0.8276 -0.5577
vn -0.0000 0.7728 -0.6346
vn 0.0441 0.8344 -0.5494
vn -0.0004 0.7735 -0.6338
vn -0.0308 0.8350 -0.5495
vn 0.0221 0.8400 -0.5421
vn -0.0571 0.8346 -0.5479
vn 0.0019 0.7684 -0.6400
vn 0.0012 0.7710 -0.6369
vn -0.0028 0.7778 -0.6285
vn -0.0408 0.8353 -0.5482
vn -0.0007 0.7735 -0.6338
vn -0.0638 0.8310 -0.5526
vn -0.0801 0.8211 -0.5651
vn -0.0029 0.7735 -0.6337
vn -0.1197 0.7733 -0.6226
vn -0.0990 0.8118 -0.5755
vn -0.1164 0.7590 -0.6406
vn 0.0020 0.7724 -0.6351
vn -0.1122 0.7451 -0.6574
vn 0.0021 0.7729 -0.6345
vn -0.0017 0.7721 -0.6356
vn -0.0862 0.7239 -0.6845
vn -0.1144 0.7532 -0.6477
vn -0.0040 0.7710 -0.6369
vn 0.0058 0.7748 -0.6322
vn -0.0997 0.7264 -0.6800
vn 0.0010 0.7733 -0.6340
vn -0.0331 0.6930 -0.7202
vn -0.0862 0.7158 -0.6929
vn -0.0002 0.7722 -0.6354
vn -0.0015 0.7686 -0.6397
vn 0.0000 0.7727 -0.6347
vn -0.0003 0.7703 -0.6377
vn 0.0011 0.7676 -0.6409
vn 0.0009 0.7705 -0.6374
vn 0.0049 0.7676 -0.6409
vn 0.0029 0.7706 -0.6373
vn 0.0058 0.7700 -0.6380
vn 0.0036 0.7715 -0.6363
vn 0.0097 0.7713 -0.6363
vn 0.0026 0.7727 -0.6348
vn 0.0061 0.7732 -0.6342
vn 0.0079 0.7745 -0.6326
vn 0.0054 0.7749 -0.6321
vn 0.0033 0.7746 -0.6325
vn 0.0049 0.7767 -0.6298
vn 0.0016 0.7751 -0.6318
vn 0.0017 0.7765 -0.6301
vn 0.0005 0.7778 -0.6285
vn -0.0009 0.7765 -0.6301
vn -0.0021 0.7765 -0.6301
vn -0.0022 0.7753 -0.6316
vn -0.0050 0.7762 -0.6304
vn -0.0047 0.7750 -0.6320
vn -0.0038 0.7739 -0.6333
vn -0.0079 0.7741 -0.6330
vn -0.0064 0.7728 -0.6346
vn -0.0062 0.7720 -0.6356
vn -0.0050 0.7716 -0.6361
vn -0.0055 0.7707 -0.6372
vn -0.0046 0.7702 -0.6378
vn -0.0029 0.7704 -0.6376
vn -0.0036 0.7681 -0.6403
vn 0.3193 0.9438 0.0852
vn 0.1859 0.9735 0.1330
vn 0.3199 0.9436 0.0850
vn 0.0418 0.9895 0.1383
vn 0.1860 0.9735 0.1333
vn -0.1044 0.9833 0.1490
vn 0.0417 0.9895 0.1384
vn -0.2440 0.9635 0.1100
vn -0.2440 0.9636 0.1097
vn -0.3765 0.9240 0.0671
vn -0.4959 0.8683 0.0039
vn -0.3765 0.9240 0.0672
vn -0.5887 0.8037 -0.0869
vn -0.4958 0.8684 0.0038
vn -0.6704 0.7212 -0.1745
vn -0.6705 0.7212 -0.1743
vn -0.7150 0.6383 -0.2853
vn -0.7408 0.5446 -0.3933
vn -0.7355 0.4514 -0.5052
vn -0.7410 0.5444 -0.3932
vn -0.6995 0.3633 -0.6154
vn -0.6994 0.3633 -0.6155
vn -0.6340 0.2855 -0.7187
vn -0.6340 0.2854 -0.7187
vn -0.5575 0.1977 -0.8063
vn -0.4410 0.1536 -0.8843
vn -0.4407 0.1542 -0.8843
vn -0.3250 0.0805 -0.9423
vn -0.1831 0.0747 -0.9803
vn -0.3250 0.0807 -0.9423
vn -0.0420 0.0447 -0.9981
vn -0.0421 0.0446 -0.9981
vn 0.1028 0.0615 -0.9928
vn 0.1029 0.0612 -0.9928
vn 0.2476 0.0627 -0.9668
vn 0.2478 0.0617 -0.9669
vn 0.3727 0.1235 -0.9197
vn 0.4985 0.1598 -0.8520
vn 0.5847 0.2473 -0.7726
vn 0.4984 0.1599 -0.8521
vn 0.6784 0.3013 -0.6700
vn 0.6789 0.3001 -0.6701
vn 0.7089 0.4104 -0.5736
vn 0.7411 0.4911 -0.4579
vn 0.7413 0.4909 -0.4577
vn 0.7351 0.5834 -0.3453
vn 0.7352 0.5834 -0.3452
vn 0.7021 0.6725 -0.2343
vn 0.7019 0.6726 -0.2344
vn 0.6316 0.7620 -0.1432
vn 0.6316 0.7620 -0.1430
vn 0.5574 0.8294 -0.0374
vn 0.5578 0.8291 -0.0368
vn 0.4450 0.8950 0.0304
vn -0.1045 0.9832 0.1495
vn -0.5885 0.8038 -0.0873
vn -0.7357 0.4513 -0.5051
vn -0.1829 0.0753 -0.9802
vn 0.5842 0.2480 -0.7728
vn 0.7084 0.4110 -0.5739
usemtl external_contoller_01:blinn1SG.016
s 1
f 2/1/1 4/2/2 1/3/3
f 2/1/1 6/4/4 3/5/5
f 5/6/6 8/7/7 6/4/4
f 9/8/8 8/7/7 7/9/9
f 9/8/8 12/10/10 10/11/11
f 11/12/10 14/13/12 12/10/10
f 15/14/13 14/13/12 13/15/14
f 17/16/15 16/17/16 15/14/13
f 17/16/15 20/18/17 18/19/18
f 21/20/19 20/18/17 19/21/17
f 21/20/19 24/22/20 22/23/19
f 23/24/20 26/25/21 24/22/20
f 25/26/22 28/27/23 26/25/21
f 27/28/24 30/29/25 28/27/23
f 31/30/26 30/29/25 29/31/27
f 33/32/28 32/33/29 31/30/26
f 33/32/28 36/34/30 34/35/31
f 35/36/32 38/37/33 36/34/30
f 39/38/34 38/37/33 37/39/35
f 39/38/34 42/40/36 40/41/37
f 43/42/38 42/40/36 41/43/39
f 45/44/40 44/45/38 43/42/38
f 45/44/40 48/46/41 46/47/42
f 47/48/43 50/49/44 48/46/41
f 51/50/45 50/49/44 49/51/46
f 53/52/47 52/53/45 51/50/45
f 55/54/48 54/55/49 53/52/47
f 57/56/50 56/57/51 55/54/48
f 57/56/50 60/58/52 58/59/53
f 61/60/54 60/58/52 59/61/55
f 63/62/56 62/63/54 61/60/54
f 63/62/56 4/2/2 64/64/57
f 65/65/58 67/66/59 68/67/60
f 69/68/61 67/66/59 66/69/62
f 71/70/63 70/71/64 69/68/61
f 71/70/63 74/72/65 72/73/66
f 73/74/67 76/75/68 74/72/65
f 75/76/69 78/77/70 76/75/68
f 77/78/71 80/79/72 78/77/70
f 79/80/73 82/81/74 80/79/72
f 81/82/75 84/83/76 82/81/74
f 85/84/77 84/83/76 83/85/78
f 85/84/77 88/86/79 86/87/80
f 89/88/81 88/86/79 87/89/82
f 91/90/83 90/91/84 89/88/81
f 93/92/85 92/93/86 91/90/83
f 93/92/85 96/94/87 94/95/88
f 95/96/89 98/97/90 96/94/87
f 97/98/91 100/99/92 98/97/90
f 101/100/93 100/99/92 99/101/94
f 103/102/95 102/103/96 101/100/93
f 103/102/95 106/104/97 104/105/98
f 105/106/99 108/107/100 106/104/97
f 107/108/101 110/109/70 108/107/100
f 109/110/102 112/111/103 110/109/70
f 113/112/104 112/111/103 111/113/105
f 115/114/106 114/115/107 113/112/104
f 117/116/108 116/117/109 115/114/106
f 117/116/108 120/118/110 118/119/80
f 121/120/111 120/118/110 119/121/112
f 121/120/111 124/122/113 122/123/114
f 123/124/115 126/125/116 124/122/113
f 127/126/117 126/125/116 125/127/118
f 65/65/58 128/128/119 127/126/117
f 129/129/120 130/130/121 131/131/122
f 131/131/122 130/130/121 132/132/123
f 132/132/123 130/130/121 133/133/124
f 133/133/124 130/130/121 134/134/125
f 134/134/125 130/130/121 135/135/126
f 135/135/126 130/130/121 136/136/127
f 136/136/127 130/130/121 137/137/128
f 137/137/128 130/130/121 138/138/129
f 138/138/129 130/130/121 139/139/130
f 139/139/130 130/130/121 140/140/131
f 140/140/131 130/130/121 141/141/132
f 141/141/132 130/130/121 142/142/133
f 142/142/133 130/130/121 143/143/134
f 143/143/134 130/130/121 144/144/135
f 144/144/135 130/130/121 145/145/136
f 145/145/136 130/130/121 146/146/137
f 146/146/137 130/130/121 147/147/138
f 147/147/138 130/130/121 148/148/139
f 148/148/139 130/130/121 149/149/140
f 149/149/140 130/130/121 150/150/141
f 150/150/141 130/130/121 151/151/142
f 151/151/142 130/130/121 152/152/143
f 152/152/143 130/130/121 153/153/144
f 153/153/144 130/130/121 154/154/145
f 154/154/145 130/130/121 155/155/146
f 155/155/146 130/130/121 156/156/147
f 156/156/147 130/130/121 157/157/148
f 157/157/148 130/130/121 158/158/149
f 158/158/149 130/130/121 159/159/150
f 159/159/150 130/130/121 160/160/151
f 160/160/151 130/130/121 161/161/152
f 161/161/152 130/130/121 129/129/120
f 128/128/153 1/3/154 63/62/155
f 67/66/156 1/3/154 68/67/157
f 70/71/158 2/1/159 67/66/156
f 7/9/160 70/71/158 72/73/161
f 74/72/162 7/9/160 72/73/161
f 76/75/163 9/8/164 74/72/162
f 78/77/165 11/12/166 76/75/163
f 15/14/167 78/77/165 80/79/168
f 82/81/169 15/14/167 80/79/168
f 84/83/170 17/16/169 82/81/169
f 86/87/171 19/21/172 84/83/170
f 23/24/173 86/87/171 88/86/174
f 25/26/175 88/86/174 90/91/176
f 27/28/177 90/91/176 92/93/177
f 29/31/178 92/93/177 94/95/179
f 96/94/180 29/31/178 94/95/179
f 98/97/181 31/30/182 96/94/180
f 35/36/183 98/97/181 100/99/184
f 37/39/185 100/99/184 102/103/186
f 39/38/187 102/103/186 104/105/188
f 106/104/189 39/38/187 104/105/188
f 108/107/190 41/43/189 106/104/189
f 110/109/191 43/42/192 108/107/190
f 47/48/193 110/109/191 112/111/194
f 114/115/195 47/48/193 112/111/194
f 51/50/196 114/115/195 116/117/197
f 53/52/198 116/117/197 118/119/199
f 55/54/200 118/119/199 120/118/201
f 57/56/202 120/118/201 122/123/203
f 59/61/204 122/123/203 124/122/205
f 126/125/206 59/61/204 124/122/205
f 63/62/155 126/125/206 128/128/153
f 161/161/152 65/65/58 127/126/117
f 66/69/62 129/129/120 131/131/122
f 132/132/123 66/69/62 131/131/122
f 133/133/124 69/68/61 132/132/123
f 134/134/125 71/70/63 133/133/124
f 135/135/126 73/74/67 134/134/125
f 136/136/127 75/76/69 135/135/126
f 137/137/128 77/78/71 136/136/127
f 138/138/129 79/80/73 137/137/128
f 139/139/130 81/82/75 138/138/129
f 85/84/77 139/139/130 140/140/131
f 87/89/82 140/140/131 141/141/132
f 142/142/133 87/89/82 141/141/132
f 143/143/134 89/88/81 142/142/133
f 93/92/85 143/143/134 144/144/135
f 95/96/89 144/144/135 145/145/136
f 97/98/91 145/145/136 146/146/137
f 99/101/94 146/146/137 147/147/138
f 148/148/139 99/101/94 147/147/138
f 149/149/140 101/100/93 148/148/139
f 150/150/141 103/102/95 149/149/140
f 151/151/142 105/106/99 150/150/141
f 152/152/143 107/108/101 151/151/142
f 153/153/144 109/110/102 152/152/143
f 113/112/104 153/153/144 154/154/145
f 115/114/106 154/154/145 155/155/146
f 117/116/108 155/155/146 156/156/147
f 157/157/148 117/116/108 156/156/147
f 158/158/149 119/121/112 157/157/148
f 159/159/150 121/120/111 158/158/149
f 160/160/151 123/124/115 159/159/150
f 127/126/117 160/160/151 161/161/152
f 2/1/1 3/5/5 4/2/2
f 2/1/1 5/6/6 6/4/4
f 5/6/6 7/9/9 8/7/7
f 9/8/8 10/11/11 8/7/7
f 9/8/8 11/12/10 12/10/10
f 11/12/10 13/15/14 14/13/12
f 15/14/13 16/17/16 14/13/12
f 17/16/15 18/19/18 16/17/16
f 17/16/15 19/21/17 20/18/17
f 21/20/19 22/23/19 20/18/17
f 21/20/19 23/24/20 24/22/20
f 23/24/20 25/26/22 26/25/21
f 25/26/22 27/28/24 28/27/23
f 27/28/24 29/31/27 30/29/25
f 31/30/26 32/33/29 30/29/25
f 33/32/28 34/35/31 32/33/29
f 33/32/28 35/36/32 36/34/30
f 35/36/32 37/39/35 38/37/33
f 39/38/34 40/41/37 38/37/33
f 39/38/34 41/43/39 42/40/36
f 43/42/38 44/45/38 42/40/36
f 45/44/40 46/47/42 44/45/38
f 45/44/40 47/48/43 48/46/41
f 47/48/43 49/51/46 50/49/44
f 51/50/45 52/53/45 50/49/44
f 53/52/47 54/55/49 52/53/45
f 55/54/48 56/57/51 54/55/49
f 57/56/50 58/59/53 56/57/51
f 57/56/50 59/61/55 60/58/52
f 61/60/54 62/63/54 60/58/52
f 63/62/56 64/64/57 62/63/54
f 63/62/56 1/3/3 4/2/2
f 65/65/58 66/69/62 67/66/59
f 69/68/61 70/71/64 67/66/59
f 71/70/63 72/73/66 70/71/64
f 71/70/63 73/74/67 74/72/65
f 73/74/67 75/76/69 76/75/68
f 75/76/69 77/78/71 78/77/70
f 77/78/71 79/80/73 80/79/72
f 79/80/73 81/82/75 82/81/74
f 81/82/75 83/85/78 84/83/76
f 85/84/77 86/87/80 84/83/76
f 85/84/77 87/89/82 88/86/79
f 89/88/81 90/91/84 88/86/79
f 91/90/83 92/93/86 90/91/84
f 93/92/85 94/95/88 92/93/86
f 93/92/85 95/96/89 96/94/87
f 95/96/89 97/98/91 98/97/90
f 97/98/91 99/101/94 100/99/92
f 101/100/93 102/103/96 100/99/92
f 103/102/95 104/105/98 102/103/96
f 103/102/95 105/106/99 106/104/97
f 105/106/99 107/108/101 108/107/100
f 107/108/101 109/110/102 110/109/70
f 109/110/102 111/113/105 112/111/103
f 113/112/104 114/115/107 112/111/103
f 115/114/106 116/117/109 114/115/107
f 117/116/108 118/119/80 116/117/109
f 117/116/108 119/121/112 120/118/110
f 121/120/111 122/123/114 120/118/110
f 121/120/111 123/124/115 124/122/113
f 123/124/115 125/127/118 126/125/116
f 127/126/117 128/128/119 126/125/116
f 65/65/58 68/67/60 128/128/119
f 128/128/153 68/67/157 1/3/154
f 67/66/156 2/1/159 1/3/154
f 70/71/158 5/6/207 2/1/159
f 7/9/160 5/6/207 70/71/158
f 74/72/162 9/8/164 7/9/160
f 76/75/163 11/12/166 9/8/164
f 78/77/165 13/15/208 11/12/166
f 15/14/167 13/15/208 78/77/165
f 82/81/169 17/16/169 15/14/167
f 84/83/170 19/21/172 17/16/169
f 86/87/171 21/20/209 19/21/172
f 23/24/173 21/20/209 86/87/171
f 25/26/175 23/24/173 88/86/174
f 27/28/177 25/26/175 90/91/176
f 29/31/178 27/28/177 92/93/177
f 96/94/180 31/30/182 29/31/178
f 98/97/181 33/32/210 31/30/182
f 35/36/183 33/32/210 98/97/181
f 37/39/185 35/36/183 100/99/184
f 39/38/187 37/39/185 102/103/186
f 106/104/189 41/43/189 39/38/187
f 108/107/190 43/42/192 41/43/189
f 110/109/191 45/44/211 43/42/192
f 47/48/193 45/44/211 110/109/191
f 114/115/195 49/51/212 47/48/193
f 51/50/196 49/51/212 114/115/195
f 53/52/198 51/50/196 116/117/197
f 55/54/200 53/52/198 118/119/199
f 57/56/202 55/54/200 120/118/201
f 59/61/204 57/56/202 122/123/203
f 126/125/206 61/60/206 59/61/204
f 63/62/155 61/60/206 126/125/206
f 161/161/152 129/129/120 65/65/58
f 66/69/62 65/65/58 129/129/120
f 132/132/123 69/68/61 66/69/62
f 133/133/124 71/70/63 69/68/61
f 134/134/125 73/74/67 71/70/63
f 135/135/126 75/76/69 73/74/67
f 136/136/127 77/78/71 75/76/69
f 137/137/128 79/80/73 77/78/71
f 138/138/129 81/82/75 79/80/73
f 139/139/130 83/85/78 81/82/75
f 85/84/77 83/85/78 139/139/130
f 87/89/82 85/84/77 140/140/131
f 142/142/133 89/88/81 87/89/82
f 143/143/134 91/90/83 89/88/81
f 93/92/85 91/90/83 143/143/134
f 95/96/89 93/92/85 144/144/135
f 97/98/91 95/96/89 145/145/136
f 99/101/94 97/98/91 146/146/137
f 148/148/139 101/100/93 99/101/94
f 149/149/140 103/102/95 101/100/93
f 150/150/141 105/106/99 103/102/95
f 151/151/142 107/108/101 105/106/99
f 152/152/143 109/110/102 107/108/101
f 153/153/144 111/113/105 109/110/102
f 113/112/104 111/113/105 153/153/144
f 115/114/106 113/112/104 154/154/145
f 117/116/108 115/114/106 155/155/146
f 157/157/148 119/121/112 117/116/108
f 158/158/149 121/120/111 119/121/112
f 159/159/150 123/124/115 121/120/111
f 160/160/151 125/127/118 123/124/115
f 127/126/117 125/127/118 160/160/151
