# Blender v2.81 (sub 16) OBJ File: ''
# www.blender.org
mtllib sphereBounds.mtl
o sphereBounds_Sphere
v 0.000000 0.707107 -0.707107
v 0.000000 0.382683 -0.923880
v 0.000000 -0.382684 -0.923880
v 0.000000 -0.923880 -0.382683
v 0.146447 0.923880 -0.353553
v 0.270598 0.707107 -0.653281
v 0.353553 0.382683 -0.853553
v 0.382683 -0.000000 -0.923880
v 0.353553 -0.382684 -0.853553
v 0.270598 -0.707107 -0.653281
v 0.146447 -0.923880 -0.353553
v 0.270598 0.923880 -0.270598
v 0.500000 0.707107 -0.500000
v 0.653281 0.382683 -0.653281
v 0.707107 -0.000000 -0.707107
v 0.653281 -0.382684 -0.653281
v 0.500000 -0.707107 -0.500000
v 0.270598 -0.923880 -0.270598
v 0.353553 0.923880 -0.146447
v 0.653281 0.707107 -0.270598
v 0.853553 0.382683 -0.353553
v 0.923879 -0.000000 -0.382683
v 0.853553 -0.382684 -0.353553
v 0.653281 -0.707107 -0.270598
v 0.353553 -0.923880 -0.146447
v 0.382683 0.923880 -0.000000
v 0.707107 0.707107 -0.000000
v 0.923879 0.382683 -0.000000
v 1.000000 -0.000000 -0.000000
v 0.923879 -0.382684 -0.000000
v 0.707107 -0.707107 -0.000000
v 0.382683 -0.923880 -0.000000
v 0.353553 0.923880 0.146446
v 0.653281 0.707107 0.270598
v 0.853553 0.382683 0.353553
v 0.923879 -0.000000 0.382683
v 0.853553 -0.382684 0.353553
v 0.653281 -0.707107 0.270598
v 0.353553 -0.923880 0.146446
v 0.270598 0.923880 0.270598
v 0.500000 0.707107 0.500000
v 0.653281 0.382683 0.653281
v 0.707106 -0.000000 0.707107
v 0.653281 -0.382684 0.653281
v 0.500000 -0.707107 0.500000
v 0.270598 -0.923880 0.270598
v 0.146446 0.923880 0.353553
v 0.270598 0.707107 0.653281
v 0.353553 0.382683 0.853553
v 0.382683 -0.000000 0.923879
v 0.353553 -0.382684 0.853553
v 0.270598 -0.707107 0.653281
v 0.146446 -0.923880 0.353553
v -0.000000 0.923880 0.382683
v -0.000000 0.707107 0.707106
v -0.000000 0.382683 0.923879
v -0.000000 -0.000000 1.000000
v -0.000000 -0.382684 0.923879
v -0.000000 -0.707107 0.707106
v -0.000000 -0.923880 0.382683
v -0.146447 0.923880 0.353553
v -0.270598 0.707107 0.653281
v -0.353554 0.382683 0.853553
v -0.382684 -0.000000 0.923879
v -0.353554 -0.382684 0.853553
v -0.270598 -0.707107 0.653281
v -0.146447 -0.923880 0.353553
v -0.270598 0.923880 0.270598
v -0.500000 0.707107 0.499999
v -0.653282 0.382683 0.653281
v -0.707107 -0.000000 0.707106
v -0.653282 -0.382684 0.653281
v -0.500000 -0.707107 0.499999
v -0.270598 -0.923880 0.270598
v -0.353553 0.923880 0.146446
v -0.653281 0.707107 0.270597
v -0.853553 0.382683 0.353553
v -0.923879 -0.000000 0.382683
v -0.853553 -0.382684 0.353553
v -0.653281 -0.707107 0.270597
v -0.353553 -0.923880 0.146446
v -0.382683 0.923880 -0.000000
v -0.707106 0.707107 -0.000000
v -0.923879 0.382683 -0.000001
v -1.000000 -0.000000 -0.000001
v -0.923879 -0.382684 -0.000001
v -0.707106 -0.707107 -0.000000
v -0.382683 -0.923880 -0.000000
v -0.353553 0.923880 -0.146447
v -0.653281 0.707107 -0.270598
v -0.853553 0.382683 -0.353554
v -0.923879 -0.000000 -0.382684
v -0.853553 -0.382684 -0.353554
v -0.653281 -0.707107 -0.270598
v -0.353553 -0.923880 -0.146447
v -0.270598 0.923880 -0.270598
v -0.499999 0.707107 -0.500000
v -0.653281 0.382683 -0.653282
v -0.707106 -0.000000 -0.707107
v -0.653281 -0.382684 -0.653282
v -0.499999 -0.707107 -0.500000
v -0.270598 -0.923880 -0.270598
v -0.146446 0.923880 -0.353553
v -0.270598 0.707107 -0.653281
v -0.353553 0.382683 -0.853553
v -0.382683 -0.000000 -0.923880
v -0.353553 -0.382684 -0.853553
v -0.270598 -0.707107 -0.653281
v -0.146446 -0.923880 -0.353553
v -0.000000 1.000000 -0.000000
v 0.000000 0.923880 -0.382683
v 0.000001 -0.000000 -1.000000
v 0.000000 -0.707107 -0.707106
v 0.000000 -1.000000 -0.000000
vt 0.500001 -1.267767
vt 1.383883 -0.456709
vt 1.176495 -1.267767
vt 0.500002 0.500000
vt 1.383883 1.456708
vt 1.456708 0.500000
vt 0.500000 1.456708
vt 1.176495 2.133204
vt 0.500000 2.267767
vt 0.500001 2.267766
vt 0.866116 1.383883
vt 0.500000 1.456709
vt 0.500000 -0.456709
vt 0.500000 1.456708
vt 0.500000 0.500000
vt 0.866116 1.383883
vt 0.500000 0.500000
vt 1.176495 2.133204
vt 1.176495 1.176495
vt 2.133203 -0.456709
vt 1.176495 2.267767
vt 2.133203 1.456708
vt 1.176495 1.176495
vt 1.749999 -1.267767
vt 2.267766 0.500000
vt 1.749999 1.750000
vt 1.750000 2.267767
vt 1.383883 1.456708
vt 1.383883 0.866117
vt 1.383883 0.866116
vt 1.176495 -1.267767
vt 1.456708 0.500000
vt 2.133203 1.176495
vt 2.133203 1.176495
vt 1.383883 -0.456709
vt 1.456708 0.500000
vt 0.500000 -1.267767
vt 0.500000 0.500000
vt 1.456708 0.500000
vt 2.267766 0.500000
vt 2.267766 0.500000
vt 0.500000 -0.456709
vt 1.176495 2.267767
vt 0.500000 1.456708
vt 1.383883 0.133884
vt 2.133203 -0.176495
vt 1.383883 0.133884
vt -0.383883 -0.456709
vt -0.176495 2.267767
vt -0.383883 1.456708
vt -0.176495 -1.267767
vt -0.456709 0.500000
vt 2.133203 -0.176495
vt 1.176494 -0.176495
vt -1.133204 -0.456709
vt -1.133204 1.456708
vt 1.176495 -0.176495
vt -0.750000 -1.267767
vt -1.267767 0.500000
vt 1.749999 -0.750000
vt 0.866116 -0.383883
vt 0.866116 -0.383883
vt 2.133203 -0.456709
vt 1.176494 -1.267767
vt 1.749999 -1.267767
vt 2.267766 0.500000
vt 1.383882 1.456708
vt 1.456707 0.500000
vt 1.176494 -1.133203
vt 1.176494 -1.133203
vt 1.383882 -0.456709
vt 1.749999 2.267767
vt 2.133203 1.456708
vt 0.499999 -1.267767
vt 0.499999 0.500000
vt 0.500000 -0.456708
vt 0.499999 -1.267766
vt 0.499999 -0.456708
vt 0.499999 -0.456709
vt 1.176494 2.267767
vt 0.499999 1.456708
vt -0.176496 -1.133203
vt 0.133883 -0.383883
vt -0.383884 -0.456709
vt 0.499999 2.267767
vt -0.383884 1.456708
vt 0.133883 -0.383883
vt -0.176496 -1.267767
vt -0.456709 0.500000
vt -0.176496 -1.133203
vt -1.133204 -0.456709
vt -0.176496 2.267767
vt -1.133204 1.456708
vt -0.176495 -0.176494
vt -0.176495 -0.176494
vt -0.750000 -1.267767
vt -1.267767 0.500000
vt -0.750000 -0.749999
vt -0.383883 0.133884
vt -0.176494 -1.267767
vt -0.456707 0.500000
vt -0.383883 0.133884
vt -1.133204 -0.176494
vt -0.750000 -0.749999
vt -0.383882 -0.456709
vt -0.176494 2.267767
vt -0.383882 1.456708
vt 0.500001 0.500000
vt -0.456708 0.500001
vt -1.267766 0.500001
vt -1.267766 0.500001
vt -0.456708 0.500001
vt 0.500001 -0.456709
vt 0.500001 1.456708
vt 0.500001 -1.267767
vt -0.383883 0.866117
vt 1.383884 -0.456709
vt 0.500001 2.267767
vt 1.383884 1.456708
vt -0.383883 0.866117
vt 1.176496 -1.267767
vt 1.456709 0.500000
vt -1.133203 1.176496
vt 1.176496 2.267767
vt 2.133204 1.456708
vt -0.176495 1.176495
vt -0.176495 1.176495
vt 1.750000 -1.267767
vt 2.267767 0.500000
vt -0.749999 1.750000
vt -1.133203 1.176496
vt 2.133204 -0.456709
vt 0.133884 1.383883
vt -1.133203 -0.456709
vt -0.176494 -1.267767
vt -0.749999 -1.267767
vt -1.133203 1.456708
vt -0.456707 0.500000
vt -1.267765 0.500000
vt 0.133884 1.383883
vt -0.176494 2.133204
vt -0.749999 1.750000
vt -0.383882 -0.456709
vt -0.749999 2.267767
vt -0.383882 1.456708
vt -0.176494 2.133204
vt 1.749999 1.750000
vt 0.500000 2.267767
vt 1.749999 -0.750000
vt -0.750000 2.267767
vt -0.750000 2.267767
vt -1.133204 -0.176494
vt 1.750000 2.267767
vt -0.176494 2.267767
vn 0.1632 -0.5481 -0.8203
vn 0.1915 0.1915 -0.9626
vn 0.1098 0.8264 -0.5522
vn 0.1098 -0.8264 -0.5522
vn 0.1915 -0.1915 -0.9626
vn 0.1632 0.5481 -0.8203
vn 0.0388 0.9800 -0.1949
vn 0.0388 -0.9800 -0.1949
vn 0.3128 -0.8264 -0.4681
vn 0.5453 -0.1915 -0.8161
vn 0.4647 0.5481 -0.6954
vn 0.1104 0.9800 -0.1653
vn 0.1104 -0.9800 -0.1653
vn 0.4647 -0.5481 -0.6954
vn 0.5453 0.1915 -0.8161
vn 0.3128 0.8264 -0.4681
vn 0.6954 0.5481 -0.4647
vn 0.1653 0.9800 -0.1104
vn 0.1653 -0.9800 -0.1104
vn 0.6954 -0.5481 -0.4647
vn 0.8161 0.1915 -0.5453
vn 0.4681 0.8264 -0.3128
vn 0.4681 -0.8264 -0.3128
vn 0.8161 -0.1915 -0.5453
vn 0.1949 -0.9800 -0.0388
vn 0.8203 -0.5481 -0.1632
vn 0.9626 0.1915 -0.1915
vn 0.5522 0.8264 -0.1098
vn 0.5522 -0.8264 -0.1098
vn 0.9626 -0.1915 -0.1915
vn 0.8203 0.5481 -0.1632
vn 0.1949 0.9800 -0.0388
vn 0.5522 0.8264 0.1098
vn 0.5522 -0.8264 0.1098
vn 0.9626 -0.1915 0.1915
vn 0.8203 0.5481 0.1632
vn 0.1949 0.9800 0.0388
vn 0.1949 -0.9800 0.0388
vn 0.8203 -0.5481 0.1632
vn 0.9626 0.1915 0.1915
vn 0.4681 -0.8264 0.3128
vn 0.8161 -0.1915 0.5453
vn 0.6954 0.5481 0.4647
vn 0.1653 0.9800 0.1104
vn 0.1653 -0.9800 0.1104
vn 0.6954 -0.5481 0.4647
vn 0.8161 0.1915 0.5453
vn 0.4681 0.8264 0.3128
vn 0.1104 0.9800 0.1653
vn 0.1104 -0.9800 0.1653
vn 0.4647 -0.5481 0.6954
vn 0.5453 0.1915 0.8161
vn 0.3128 0.8264 0.4681
vn 0.3128 -0.8264 0.4681
vn 0.5453 -0.1915 0.8161
vn 0.4647 0.5481 0.6954
vn 0.1632 -0.5481 0.8203
vn 0.1915 0.1915 0.9626
vn 0.1098 0.8264 0.5522
vn 0.1098 -0.8264 0.5522
vn 0.1915 -0.1915 0.9626
vn 0.1632 0.5481 0.8203
vn 0.0388 0.9800 0.1949
vn 0.0388 -0.9800 0.1949
vn -0.1098 -0.8264 0.5522
vn -0.1915 -0.1915 0.9626
vn -0.1632 0.5481 0.8203
vn -0.0388 0.9800 0.1949
vn -0.0388 -0.9800 0.1949
vn -0.1632 -0.5481 0.8203
vn -0.1915 0.1915 0.9626
vn -0.1098 0.8264 0.5522
vn -0.5453 -0.1915 0.8161
vn -0.4647 0.5481 0.6954
vn -0.1104 0.9800 0.1653
vn -0.1104 -0.9800 0.1653
vn -0.4647 -0.5481 0.6954
vn -0.5453 0.1915 0.8161
vn -0.3128 0.8264 0.4681
vn -0.3128 -0.8264 0.4681
vn -0.1653 -0.9800 0.1104
vn -0.6954 -0.5481 0.4647
vn -0.8161 0.1915 0.5453
vn -0.4681 0.8264 0.3128
vn -0.4681 -0.8264 0.3128
vn -0.8161 -0.1915 0.5453
vn -0.6954 0.5481 0.4647
vn -0.1653 0.9800 0.1104
vn -0.9626 0.1915 0.1915
vn -0.5522 0.8264 0.1098
vn -0.5522 -0.8264 0.1098
vn -0.9626 -0.1915 0.1915
vn -0.8203 0.5481 0.1632
vn -0.1949 0.9800 0.0388
vn -0.1949 -0.9800 0.0388
vn -0.8203 -0.5481 0.1632
vn -0.5522 -0.8264 -0.1098
vn -0.9626 -0.1915 -0.1915
vn -0.8203 0.5481 -0.1632
vn -0.1949 0.9800 -0.0388
vn -0.1949 -0.9800 -0.0388
vn -0.8203 -0.5481 -0.1632
vn -0.9626 0.1915 -0.1915
vn -0.5522 0.8264 -0.1098
vn -0.6954 0.5481 -0.4647
vn -0.1653 0.9800 -0.1104
vn -0.1653 -0.9800 -0.1104
vn -0.6954 -0.5481 -0.4647
vn -0.8161 0.1915 -0.5453
vn -0.4681 0.8264 -0.3128
vn -0.4681 -0.8264 -0.3128
vn -0.8161 -0.1915 -0.5453
vn -0.1104 -0.9800 -0.1653
vn -0.4647 -0.5481 -0.6954
vn -0.5453 0.1915 -0.8161
vn -0.3128 0.8264 -0.4681
vn -0.3128 -0.8264 -0.4681
vn -0.5453 -0.1915 -0.8161
vn -0.4647 0.5481 -0.6954
vn -0.1104 0.9800 -0.1653
vn -0.1098 0.8264 -0.5522
vn -0.1098 -0.8264 -0.5522
vn -0.1915 -0.1915 -0.9626
vn -0.1632 0.5481 -0.8203
vn -0.0388 0.9800 -0.1949
vn -0.0388 -0.9800 -0.1949
vn -0.1632 -0.5481 -0.8203
vn -0.1915 0.1915 -0.9626
usemtl sphereBounds
s off
f 113/1/1 9/2/1 10/3/1
f 112/4/2 7/5/2 8/6/2
f 111/7/3 6/8/3 1/9/3
f 113/10/4 11/11/4 4/12/4
f 112/4/5 9/2/5 3/13/5
f 1/9/6 7/5/6 2/14/6
f 111/7/7 110/15/7 5/16/7
f 114/17/8 4/12/8 11/11/8
f 10/18/9 18/19/9 11/11/9
f 8/6/10 16/20/10 9/2/10
f 6/21/11 14/22/11 7/5/11
f 5/16/12 110/15/12 12/23/12
f 114/17/13 11/11/13 18/19/13
f 9/2/14 17/24/14 10/3/14
f 7/5/15 15/25/15 8/6/15
f 5/16/16 13/26/16 6/8/16
f 13/27/17 21/28/17 14/22/17
f 12/23/18 110/15/18 19/29/18
f 114/17/19 18/19/19 25/30/19
f 16/20/20 24/31/20 17/24/20
f 15/25/21 21/28/21 22/32/21
f 13/26/22 19/29/22 20/33/22
f 18/19/23 24/34/23 25/30/23
f 15/25/24 23/35/24 16/20/24
f 114/17/25 25/30/25 32/36/25
f 23/35/26 31/37/26 24/31/26
f 21/28/27 29/38/27 22/32/27
f 20/33/28 26/39/28 27/40/28
f 25/30/29 31/41/29 32/36/29
f 22/32/30 30/42/30 23/35/30
f 20/43/31 28/44/31 21/28/31
f 19/29/32 110/15/32 26/39/32
f 27/40/33 33/45/33 34/46/33
f 31/41/34 39/47/34 32/36/34
f 29/38/35 37/48/35 30/42/35
f 28/44/36 34/49/36 35/50/36
f 26/39/37 110/15/37 33/45/37
f 114/17/38 32/36/38 39/47/38
f 30/42/39 38/51/39 31/37/39
f 28/44/40 36/52/40 29/38/40
f 38/53/41 46/54/41 39/47/41
f 36/52/42 44/55/42 37/48/42
f 34/49/43 42/56/43 35/50/43
f 33/45/44 110/15/44 40/57/44
f 114/17/45 39/47/45 46/54/45
f 37/48/46 45/58/46 38/51/46
f 35/50/47 43/59/47 36/52/47
f 34/46/48 40/57/48 41/60/48
f 40/57/49 110/15/49 47/61/49
f 114/17/50 46/54/50 53/62/50
f 44/63/51 52/64/51 45/65/51
f 43/66/52 49/67/52 50/68/52
f 41/60/53 47/61/53 48/69/53
f 46/54/54 52/70/54 53/62/54
f 43/66/55 51/71/55 44/63/55
f 41/72/56 49/67/56 42/73/56
f 51/71/57 59/74/57 52/64/57
f 49/67/58 57/75/58 50/68/58
f 48/69/59 54/76/59 55/77/59
f 53/62/60 59/74/60 60/78/60
f 50/68/61 58/79/61 51/71/61
f 48/80/62 56/81/62 49/67/62
f 47/61/63 110/15/63 54/76/63
f 114/17/64 53/62/64 60/78/64
f 60/78/65 66/82/65 67/83/65
f 57/75/66 65/84/66 58/79/66
f 55/85/67 63/86/67 56/81/67
f 54/76/68 110/15/68 61/87/68
f 114/17/69 60/78/69 67/83/69
f 58/79/70 66/88/70 59/74/70
f 56/81/71 64/89/71 57/75/71
f 55/77/72 61/87/72 62/90/72
f 64/89/73 72/91/73 65/84/73
f 62/92/74 70/93/74 63/86/74
f 61/87/75 110/15/75 68/94/75
f 114/17/76 67/83/76 74/95/76
f 66/88/77 72/91/77 73/96/77
f 64/89/78 70/93/78 71/97/78
f 61/87/79 69/98/79 62/90/79
f 66/82/80 74/95/80 67/83/80
f 114/17/81 74/95/81 81/99/81
f 72/91/82 80/100/82 73/96/82
f 70/93/83 78/101/83 71/97/83
f 69/98/84 75/102/84 76/103/84
f 73/104/85 81/99/85 74/95/85
f 71/97/86 79/105/86 72/91/86
f 70/93/87 76/106/87 77/107/87
f 68/94/88 110/15/88 75/102/88
f 77/107/89 85/108/89 78/101/89
f 76/103/90 82/109/90 83/110/90
f 81/99/91 87/111/91 88/112/91
f 78/101/92 86/113/92 79/105/92
f 76/106/93 84/114/93 77/107/93
f 75/102/94 110/15/94 82/109/94
f 114/17/95 81/99/95 88/112/95
f 80/100/96 86/113/96 87/115/96
f 87/111/97 95/116/97 88/112/97
f 85/108/98 93/117/98 86/113/98
f 83/118/99 91/119/99 84/114/99
f 82/109/100 110/15/100 89/120/100
f 114/17/101 88/112/101 95/116/101
f 87/115/102 93/117/102 94/121/102
f 85/108/103 91/119/103 92/122/103
f 83/110/104 89/120/104 90/123/104
f 90/124/105 98/125/105 91/119/105
f 89/120/106 110/15/106 96/126/106
f 114/17/107 95/116/107 102/127/107
f 93/117/108 101/128/108 94/121/108
f 92/122/109 98/125/109 99/129/109
f 90/123/110 96/126/110 97/130/110
f 94/131/111 102/127/111 95/116/111
f 92/122/112 100/132/112 93/117/112
f 114/17/113 102/127/113 109/133/113
f 100/134/114 108/135/114 101/136/114
f 98/137/115 106/138/115 99/139/115
f 97/130/116 103/140/116 104/141/116
f 101/142/117 109/133/117 102/127/117
f 99/139/118 107/143/118 100/134/118
f 97/144/119 105/145/119 98/137/119
f 96/126/120 110/15/120 103/140/120
f 103/140/121 1/9/121 104/141/121
f 108/146/122 4/12/122 109/133/122
f 106/138/123 3/13/123 107/143/123
f 105/145/124 1/9/124 2/14/124
f 103/140/125 110/15/125 111/7/125
f 114/17/126 109/133/126 4/12/126
f 108/135/127 3/13/127 113/1/127
f 106/138/128 2/14/128 112/4/128
f 113/1/1 3/13/1 9/2/1
f 112/4/2 2/14/2 7/5/2
f 111/7/3 5/16/3 6/8/3
f 113/10/4 10/18/4 11/11/4
f 112/4/5 8/6/5 9/2/5
f 1/9/6 6/21/6 7/5/6
f 10/18/9 17/147/9 18/19/9
f 8/6/10 15/25/10 16/20/10
f 6/21/11 13/27/11 14/22/11
f 9/2/14 16/20/14 17/24/14
f 7/5/15 14/22/15 15/25/15
f 5/16/16 12/23/16 13/26/16
f 13/27/17 20/43/17 21/28/17
f 16/20/20 23/35/20 24/31/20
f 15/25/21 14/22/21 21/28/21
f 13/26/22 12/23/22 19/29/22
f 18/19/23 17/147/23 24/34/23
f 15/25/24 22/32/24 23/35/24
f 23/35/26 30/42/26 31/37/26
f 21/28/27 28/44/27 29/38/27
f 20/33/28 19/29/28 26/39/28
f 25/30/29 24/34/29 31/41/29
f 22/32/30 29/38/30 30/42/30
f 20/43/31 27/148/31 28/44/31
f 27/40/33 26/39/33 33/45/33
f 31/41/34 38/53/34 39/47/34
f 29/38/35 36/52/35 37/48/35
f 28/44/36 27/148/36 34/49/36
f 30/42/39 37/48/39 38/51/39
f 28/44/40 35/50/40 36/52/40
f 38/53/41 45/149/41 46/54/41
f 36/52/42 43/59/42 44/55/42
f 34/49/43 41/150/43 42/56/43
f 37/48/46 44/55/46 45/58/46
f 35/50/47 42/56/47 43/59/47
f 34/46/48 33/45/48 40/57/48
f 44/63/51 51/71/51 52/64/51
f 43/66/52 42/73/52 49/67/52
f 41/60/53 40/57/53 47/61/53
f 46/54/54 45/149/54 52/70/54
f 43/66/55 50/68/55 51/71/55
f 41/72/56 48/80/56 49/67/56
f 51/71/57 58/79/57 59/74/57
f 49/67/58 56/81/58 57/75/58
f 48/69/59 47/61/59 54/76/59
f 53/62/60 52/70/60 59/74/60
f 50/68/61 57/75/61 58/79/61
f 48/80/62 55/85/62 56/81/62
f 60/78/65 59/74/65 66/82/65
f 57/75/66 64/89/66 65/84/66
f 55/85/67 62/92/67 63/86/67
f 58/79/70 65/84/70 66/88/70
f 56/81/71 63/86/71 64/89/71
f 55/77/72 54/76/72 61/87/72
f 64/89/73 71/97/73 72/91/73
f 62/92/74 69/151/74 70/93/74
f 66/88/77 65/84/77 72/91/77
f 64/89/78 63/86/78 70/93/78
f 61/87/79 68/94/79 69/98/79
f 66/82/80 73/104/80 74/95/80
f 72/91/82 79/105/82 80/100/82
f 70/93/83 77/107/83 78/101/83
f 69/98/84 68/94/84 75/102/84
f 73/104/85 80/152/85 81/99/85
f 71/97/86 78/101/86 79/105/86
f 70/93/87 69/151/87 76/106/87
f 77/107/89 84/114/89 85/108/89
f 76/103/90 75/102/90 82/109/90
f 81/99/91 80/152/91 87/111/91
f 78/101/92 85/108/92 86/113/92
f 76/106/93 83/118/93 84/114/93
f 80/100/96 79/105/96 86/113/96
f 87/111/97 94/131/97 95/116/97
f 85/108/98 92/122/98 93/117/98
f 83/118/99 90/124/99 91/119/99
f 87/115/102 86/113/102 93/117/102
f 85/108/103 84/114/103 91/119/103
f 83/110/104 82/109/104 89/120/104
f 90/124/105 97/153/105 98/125/105
f 93/117/108 100/132/108 101/128/108
f 92/122/109 91/119/109 98/125/109
f 90/123/110 89/120/110 96/126/110
f 94/131/111 101/142/111 102/127/111
f 92/122/112 99/129/112 100/132/112
f 100/134/114 107/143/114 108/135/114
f 98/137/115 105/145/115 106/138/115
f 97/130/116 96/126/116 103/140/116
f 101/142/117 108/146/117 109/133/117
f 99/139/118 106/138/118 107/143/118
f 97/144/119 104/154/119 105/145/119
f 103/140/121 111/7/121 1/9/121
f 108/146/122 113/10/122 4/12/122
f 106/138/123 112/4/123 3/13/123
f 105/145/124 104/154/124 1/9/124
f 108/135/127 107/143/127 3/13/127
f 106/138/128 105/145/128 2/14/128
