# Blender v2.81 (sub 16) OBJ File: ''
# www.blender.org
mtllib oculus_cv1_controller_left_button_enter.mtl
o oculus_cv1_controller_left_button_enter
v -0.004836 0.005923 0.067118
v -0.003960 0.006010 0.067223
v -0.003960 0.006985 0.066422
v -0.004836 0.006899 0.066317
v -0.003073 0.005986 0.067194
v -0.003073 0.006962 0.066393
v -0.002211 0.005853 0.067033
v -0.002211 0.006829 0.066231
v -0.001406 0.005616 0.066744
v -0.001406 0.006591 0.065942
v -0.000690 0.005283 0.066339
v -0.000690 0.006259 0.065538
v -0.000090 0.004869 0.065834
v -0.000090 0.005845 0.065033
v 0.000372 0.004388 0.065249
v 0.000372 0.005364 0.064447
v 0.000676 0.003859 0.064605
v 0.000676 0.004835 0.063804
v 0.000813 0.003302 0.063928
v 0.000813 0.004278 0.063126
v 0.000775 0.002740 0.063243
v 0.000775 0.003716 0.062441
v 0.000566 0.002193 0.062576
v 0.000566 0.003168 0.061775
v 0.000192 0.001682 0.061955
v 0.000192 0.002658 0.061153
v -0.000331 0.001227 0.061401
v -0.000331 0.002203 0.060600
v -0.000985 0.000846 0.060937
v -0.000985 0.001822 0.060136
v -0.001742 0.000553 0.060581
v -0.001742 0.001529 0.059779
v -0.002576 0.000360 0.060345
v -0.002576 0.001336 0.059544
v -0.003452 0.000273 0.060240
v -0.003452 0.001249 0.059438
v -0.004339 0.000297 0.060269
v -0.004339 0.001273 0.059467
v -0.005201 0.000430 0.060431
v -0.005201 0.001406 0.059629
v -0.006006 0.000667 0.060719
v -0.006006 0.001643 0.059918
v -0.006722 0.001000 0.061124
v -0.006722 0.001975 0.060322
v -0.007322 0.001414 0.061629
v -0.007322 0.002390 0.060827
v -0.007784 0.001895 0.062214
v -0.007784 0.002871 0.061413
v -0.008088 0.002424 0.062858
v -0.008088 0.003400 0.062057
v -0.008225 0.002980 0.063536
v -0.008225 0.003956 0.062734
v -0.008187 0.003543 0.064221
v -0.008187 0.004519 0.063419
v -0.007978 0.004090 0.064887
v -0.007978 0.005066 0.064085
v -0.007604 0.004601 0.065509
v -0.007604 0.005577 0.064707
v -0.007081 0.005056 0.066062
v -0.007081 0.006031 0.065261
v -0.006427 0.005437 0.066526
v -0.006427 0.006413 0.065724
v -0.005670 0.005730 0.066883
v -0.005670 0.006705 0.066081
v -0.004829 0.006906 0.066275
v -0.003958 0.006992 0.066380
v -0.003954 0.006944 0.066322
v -0.004810 0.006859 0.066219
v -0.003077 0.006968 0.066351
v -0.003088 0.006921 0.066294
v -0.002220 0.006836 0.066191
v -0.002245 0.006791 0.066135
v -0.001421 0.006600 0.065904
v -0.001459 0.006559 0.065853
v -0.000709 0.006270 0.065502
v -0.000759 0.006234 0.065458
v -0.000112 0.005858 0.065000
v -0.000173 0.005829 0.064965
v 0.000346 0.005380 0.064418
v 0.000278 0.005359 0.064393
v 0.000649 0.004854 0.063778
v 0.000576 0.004842 0.063764
v 0.000784 0.004301 0.063105
v 0.000709 0.004299 0.063102
v 0.000747 0.003742 0.062424
v 0.000673 0.003749 0.062432
v 0.000539 0.003198 0.061762
v 0.000468 0.003214 0.061782
v 0.000168 0.002691 0.061144
v 0.000103 0.002715 0.061174
v -0.000353 0.002239 0.060594
v -0.000409 0.002271 0.060633
v -0.001002 0.001860 0.060133
v -0.001047 0.001899 0.060180
v -0.001755 0.001569 0.059779
v -0.001788 0.001613 0.059832
v -0.002583 0.001377 0.059545
v -0.002602 0.001424 0.059602
v -0.003454 0.001291 0.059440
v -0.003458 0.001339 0.059499
v -0.004335 0.001315 0.059469
v -0.004324 0.001362 0.059527
v -0.005192 0.001447 0.059630
v -0.005167 0.001492 0.059685
v -0.005991 0.001683 0.059917
v -0.005953 0.001724 0.059967
v -0.006703 0.002013 0.060319
v -0.006653 0.002049 0.060362
v -0.007300 0.002425 0.060821
v -0.007239 0.002454 0.060856
v -0.007758 0.002903 0.061402
v -0.007690 0.002924 0.061428
v -0.008061 0.003428 0.062042
v -0.007988 0.003440 0.062057
v -0.008196 0.003981 0.062716
v -0.008121 0.003984 0.062719
v -0.008159 0.004540 0.063396
v -0.008084 0.004534 0.063388
v -0.007951 0.005084 0.064058
v -0.007880 0.005068 0.064039
v -0.007580 0.005592 0.064676
v -0.007515 0.005567 0.064646
v -0.007059 0.006044 0.065226
v -0.007003 0.006012 0.065187
v -0.006410 0.006422 0.065687
v -0.006365 0.006384 0.065641
v -0.005657 0.006713 0.066042
v -0.005624 0.006670 0.065989
v -0.003951 0.006909 0.066280
v -0.003706 0.004141 0.062910
v -0.004797 0.006826 0.066178
v -0.003095 0.006886 0.066252
v -0.002263 0.006758 0.066096
v -0.001487 0.006529 0.065817
v -0.000796 0.006208 0.065427
v -0.000216 0.005808 0.064940
v 0.000229 0.005344 0.064374
v 0.000523 0.004834 0.063753
v 0.000655 0.004297 0.063099
v 0.000619 0.003754 0.062438
v 0.000416 0.003226 0.061795
v 0.000056 0.002733 0.061195
v -0.000449 0.002294 0.060661
v -0.001080 0.001926 0.060214
v -0.001811 0.001644 0.059869
v -0.002615 0.001457 0.059642
v -0.003461 0.001373 0.059541
v -0.004317 0.001396 0.059568
v -0.005149 0.001525 0.059725
v -0.005925 0.001754 0.060003
v -0.006616 0.002074 0.060394
v -0.007196 0.002474 0.060881
v -0.007641 0.002939 0.061446
v -0.007935 0.003449 0.062067
v -0.008067 0.003986 0.062721
v -0.008031 0.004529 0.063382
v -0.007828 0.005057 0.064025
v -0.007468 0.005550 0.064625
v -0.006963 0.005989 0.065159
v -0.006332 0.006356 0.065607
v -0.005601 0.006639 0.065951
vt 0.055616 0.898729
vt 0.049243 0.908636
vt 0.047002 0.900057
vt 0.064319 0.899106
vt 0.056122 0.907584
vt 0.069798 0.909512
vt 0.063041 0.907882
vt 0.080627 0.904872
vt 0.072761 0.901158
vt 0.081599 0.916552
vt 0.076078 0.912470
vt 0.093158 0.916091
vt 0.087524 0.909984
vt 0.089776 0.927366
vt 0.086129 0.921465
vt 0.097737 0.923479
vt 0.092189 0.933878
vt 0.100768 0.931637
vt 0.093241 0.940757
vt 0.101719 0.948953
vt 0.102096 0.940251
vt 0.099667 0.957396
vt 0.092943 0.947676
vt 0.095953 0.965262
vt 0.091313 0.954433
vt 0.084272 0.966234
vt 0.088355 0.960714
vt 0.090841 0.972159
vt 0.079360 0.970764
vt 0.084734 0.977793
vt 0.073459 0.974411
vt 0.069188 0.985403
vt 0.077346 0.982372
vt 0.060068 0.977876
vt 0.066946 0.976824
vt 0.051871 0.986354
vt 0.060574 0.986731
vt 0.046392 0.975948
vt 0.053149 0.977578
vt 0.035563 0.980587
vt 0.043429 0.984302
vt 0.028666 0.975476
vt 0.040111 0.972990
vt 0.030061 0.963995
vt 0.034591 0.968907
vt 0.018453 0.961981
vt 0.023032 0.969369
vt 0.015422 0.953823
vt 0.026414 0.958094
vt 0.022949 0.944703
vt 0.024001 0.951581
vt 0.014471 0.936506
vt 0.014094 0.945209
vt 0.024877 0.931027
vt 0.023247 0.937784
vt 0.016523 0.928064
vt 0.027835 0.924746
vt 0.020237 0.920198
vt 0.031917 0.919225
vt 0.031456 0.907667
vt 0.025349 0.913301
vt 0.042731 0.911049
vt 0.036830 0.914696
vt 0.038844 0.903088
vt 0.049351 0.908827
vt 0.056166 0.908360
vt 0.049498 0.909397
vt 0.056133 0.907773
vt 0.062908 0.908644
vt 0.062987 0.908061
vt 0.069465 0.910238
vt 0.075885 0.912574
vt 0.069660 0.909683
vt 0.081426 0.916624
vt 0.075585 0.913081
vt 0.086071 0.921677
vt 0.081034 0.917063
vt 0.089110 0.927795
vt 0.085600 0.922031
vt 0.089640 0.927540
vt 0.091428 0.934133
vt 0.091997 0.933986
vt 0.092464 0.940801
vt 0.093052 0.940768
vt 0.092180 0.947543
vt 0.092763 0.947622
vt 0.090586 0.954100
vt 0.091142 0.954295
vt 0.087744 0.960221
vt 0.088251 0.960520
vt 0.083762 0.965669
vt 0.084201 0.966061
vt 0.078794 0.970235
vt 0.079147 0.970706
vt 0.073030 0.973745
vt 0.073285 0.974275
vt 0.066692 0.976063
vt 0.066839 0.976632
vt 0.060024 0.977099
vt 0.060057 0.977687
vt 0.053282 0.976815
vt 0.053202 0.977398
vt 0.046724 0.975221
vt 0.040305 0.972886
vt 0.046530 0.975777
vt 0.034764 0.968836
vt 0.040604 0.972379
vt 0.030590 0.963429
vt 0.035156 0.968397
vt 0.026550 0.957920
vt 0.030119 0.963782
vt 0.024192 0.951474
vt 0.027080 0.957665
vt 0.023138 0.944692
vt 0.024762 0.951327
vt 0.023427 0.937837
vt 0.023725 0.944659
vt 0.025048 0.931165
vt 0.024009 0.937917
vt 0.028446 0.925239
vt 0.025603 0.931359
vt 0.027939 0.924940
vt 0.032428 0.919791
vt 0.031989 0.919399
vt 0.037396 0.915224
vt 0.042905 0.911185
vt 0.037042 0.914754
vt 0.043160 0.911715
vt 0.056190 0.908782
vt 0.058095 0.942730
vt 0.049603 0.909807
vt 0.062849 0.909063
vt 0.069326 0.910637
vt 0.075371 0.913445
vt 0.080752 0.917378
vt 0.085263 0.922285
vt 0.088729 0.927978
vt 0.091018 0.934238
vt 0.092042 0.940824
vt 0.091762 0.947484
vt 0.090187 0.953961
vt 0.087380 0.960006
vt 0.083447 0.965387
vt 0.078539 0.969897
vt 0.072846 0.973364
vt 0.066587 0.975653
vt 0.060000 0.976677
vt 0.053341 0.976397
vt 0.046864 0.974823
vt 0.040819 0.972015
vt 0.035438 0.968081
vt 0.030927 0.963174
vt 0.027461 0.957481
vt 0.025172 0.951222
vt 0.024148 0.944635
vt 0.024428 0.937976
vt 0.026002 0.931499
vt 0.028810 0.925454
vt 0.032743 0.920073
vt 0.037650 0.915562
vt 0.043343 0.912096
vn -0.0559 0.6337 0.7716
vn -0.2499 0.6144 0.7484
vn -0.2497 0.6146 0.7483
vn 0.1396 0.6284 0.7652
vn -0.0558 0.6337 0.7716
vn 0.3303 0.5992 0.7293
vn 0.1397 0.6282 0.7654
vn 0.5083 0.5468 0.6653
vn 0.3299 0.5993 0.7294
vn 0.6665 0.4732 0.5761
vn 0.5079 0.5470 0.6655
vn 0.7989 0.3816 0.4649
vn 0.6668 0.4728 0.5761
vn 0.9010 0.2754 0.3353
vn 0.7990 0.3815 0.4649
vn 0.9683 0.1585 0.1931
vn 0.9683 0.1584 0.1930
vn 0.9984 0.0355 0.0433
vn 0.9902 -0.0887 -0.1080
vn 0.9984 0.0356 0.0433
vn 0.9439 -0.2096 -0.2551
vn 0.9902 -0.0888 -0.1080
vn 0.8613 -0.3224 -0.3926
vn 0.7456 -0.4228 -0.5150
vn 0.8613 -0.3226 -0.3926
vn 0.7457 -0.4227 -0.5150
vn 0.6015 -0.5072 -0.6172
vn 0.6013 -0.5074 -0.6172
vn 0.4338 -0.5718 -0.6963
vn 0.2498 -0.6146 -0.7483
vn 0.4339 -0.5720 -0.6961
vn 0.0562 -0.6337 -0.7715
vn 0.2498 -0.6143 -0.7485
vn -0.1398 -0.6285 -0.7652
vn 0.0560 -0.6339 -0.7714
vn -0.3301 -0.5992 -0.7294
vn -0.1400 -0.6286 -0.7650
vn -0.5082 -0.5465 -0.6656
vn -0.3302 -0.5992 -0.7293
vn -0.6664 -0.4732 -0.5762
vn -0.5081 -0.5466 -0.6656
vn -0.7990 -0.3818 -0.4646
vn -0.6665 -0.4736 -0.5758
vn -0.9009 -0.2756 -0.3353
vn -0.7988 -0.3819 -0.4648
vn -0.9683 -0.1585 -0.1930
vn -0.9011 -0.2751 -0.3352
vn -0.9984 -0.0356 -0.0434
vn -0.9683 -0.1584 -0.1931
vn -0.9902 0.0888 0.1081
vn -0.9984 -0.0356 -0.0433
vn -0.9439 0.2096 0.2550
vn -0.9439 0.2096 0.2551
vn -0.8612 0.3225 0.3927
vn -0.8614 0.3225 0.3925
vn -0.7455 0.4231 0.5149
vn -0.6013 0.5074 0.6173
vn -0.7458 0.4226 0.5149
vn -0.4341 0.5719 0.6960
vn -0.6011 0.5074 0.6175
vn -0.4338 0.5724 0.6959
vn 0.0016 0.7697 -0.6384
vn 0.0001 0.7719 -0.6357
vn 0.0005 0.7726 -0.6349
vn -0.0001 0.7735 -0.6338
vn -0.0004 0.7724 -0.6351
vn -0.0008 0.7713 -0.6364
vn 0.0000 0.7728 -0.6347
vn 0.0009 0.7736 -0.6337
vn 0.0010 0.7746 -0.6324
vn -0.0001 0.7723 -0.6352
vn 0.0012 0.7737 -0.6336
vn -0.0002 0.7724 -0.6351
vn -0.0003 0.7704 -0.6376
vn 0.0007 0.7731 -0.6343
vn -0.0022 0.7695 -0.6386
vn -0.0005 0.7726 -0.6349
vn 0.0002 0.7730 -0.6345
vn -0.0022 0.7726 -0.6349
vn 0.0011 0.7727 -0.6348
vn 0.0026 0.7728 -0.6346
vn -0.0017 0.7727 -0.6347
vn 0.0018 0.7723 -0.6352
vn 0.0020 0.7724 -0.6351
vn -0.0017 0.7730 -0.6344
vn -0.0007 0.7729 -0.6346
vn -0.0014 0.7735 -0.6338
vn 0.0003 0.7724 -0.6351
vn 0.0006 0.7725 -0.6350
vn -0.0021 0.7746 -0.6324
vn 0.0007 0.7722 -0.6354
vn 0.0017 0.7708 -0.6371
vn 0.0003 0.7722 -0.6354
vn -0.0002 0.7722 -0.6354
vn -0.0001 0.7723 -0.6353
vn -0.0002 0.7747 -0.6323
vn -0.0002 0.7736 -0.6337
vn 0.0002 0.7723 -0.6353
vn 0.0004 0.7737 -0.6336
vn 0.0001 0.7727 -0.6348
vn 0.0009 0.7737 -0.6336
vn -0.0002 0.7723 -0.6352
vn -0.0018 0.7713 -0.6364
vn -0.0010 0.7717 -0.6360
vn 0.0001 0.7726 -0.6349
vn 0.0014 0.7760 -0.6308
vn 0.0011 0.7732 -0.6341
vn -0.0005 0.7725 -0.6350
vn 0.0021 0.7731 -0.6343
vn 0.0001 0.7727 -0.6347
vn -0.0016 0.7725 -0.6351
vn -0.0035 0.7705 -0.6375
vn -0.0025 0.7730 -0.6344
vn -0.0053 0.7697 -0.6384
vn 0.0020 0.7726 -0.6349
vn -0.0030 0.7711 -0.6367
vn 0.0004 0.7727 -0.6348
vn -0.0013 0.7723 -0.6352
vn 0.0004 0.7725 -0.6351
vn -0.0004 0.7731 -0.6343
vn -0.0012 0.7734 -0.6339
vn 0.0010 0.7717 -0.6359
vn -0.0026 0.7757 -0.6310
vn 0.0016 0.7714 -0.6364
vn -0.0036 0.7745 -0.6326
vn 0.0002 0.7714 -0.6363
vn -0.0000 0.7727 -0.6347
vn -0.0004 0.7746 -0.6324
vn 0.0001 0.7733 -0.6341
vn -0.0007 0.7716 -0.6361
vn 0.0006 0.7734 -0.6340
vn -0.0002 0.7726 -0.6349
vn -0.0015 0.7721 -0.6355
vn 0.0009 0.7733 -0.6340
vn 0.0018 0.7731 -0.6343
vn -0.0003 0.7726 -0.6349
vn -0.0029 0.7730 -0.6345
vn 0.0032 0.7723 -0.6353
vn 0.0001 0.7724 -0.6351
vn -0.0026 0.7749 -0.6321
vn 0.0020 0.7706 -0.6373
vn -0.0001 0.7725 -0.6351
vn -0.0001 0.7744 -0.6327
vn -0.0000 0.7715 -0.6363
vn 0.0003 0.7732 -0.6342
vn -0.0022 0.7709 -0.6369
vn 0.0030 0.7747 -0.6323
vn -0.0002 0.7725 -0.6350
vn -0.0018 0.7725 -0.6350
vn -0.0001 0.7728 -0.6346
vn 0.0016 0.7726 -0.6349
vn -0.0014 0.7729 -0.6345
vn 0.0001 0.7728 -0.6347
vn 0.0003 0.7728 -0.6346
vn 0.0003 0.7723 -0.6353
vn -0.0000 0.7725 -0.6350
vn -0.1848 0.9747 0.1258
vn -0.3222 0.9423 0.0909
vn -0.3222 0.9423 0.0907
vn -0.1849 0.9746 0.1262
vn -0.0421 0.9870 0.1552
vn -0.0422 0.9870 0.1551
vn 0.1035 0.9858 0.1324
vn 0.1035 0.9858 0.1321
vn 0.2446 0.9628 0.1152
vn 0.2446 0.9627 0.1153
vn 0.3764 0.9240 0.0669
vn 0.3764 0.9240 0.0670
vn 0.4940 0.8694 0.0012
vn 0.5942 0.8004 -0.0791
vn 0.5940 0.8005 -0.0792
vn 0.6628 0.7259 -0.1837
vn 0.6628 0.7259 -0.1838
vn 0.7229 0.6326 -0.2779
vn 0.7351 0.5488 -0.3980
vn 0.7351 0.5488 -0.3981
vn 0.7349 0.4522 -0.5054
vn 0.7350 0.4521 -0.5053
vn 0.6984 0.3648 -0.6157
vn 0.6985 0.3647 -0.6157
vn 0.6403 0.2773 -0.7164
vn 0.6403 0.2773 -0.7163
vn 0.5501 0.2093 -0.8084
vn 0.5501 0.2093 -0.8085
vn 0.4484 0.1367 -0.8833
vn 0.4484 0.1368 -0.8833
vn 0.3182 0.1042 -0.9423
vn 0.3182 0.1043 -0.9423
vn 0.1863 0.0579 -0.9808
vn 0.1864 0.0579 -0.9808
vn 0.0412 0.0504 -0.9979
vn -0.1035 0.0548 -0.9931
vn -0.1036 0.0549 -0.9931
vn -0.2449 0.0745 -0.9667
vn -0.2449 0.0746 -0.9667
vn -0.3770 0.1129 -0.9193
vn -0.3770 0.1130 -0.9193
vn -0.4928 0.1702 -0.8534
vn -0.5917 0.2363 -0.7707
vn -0.5918 0.2362 -0.7707
vn -0.6670 0.3152 -0.6751
vn -0.6670 0.3151 -0.6751
vn -0.7238 0.3955 -0.5654
vn -0.7237 0.3956 -0.5655
vn -0.7328 0.4985 -0.4631
vn -0.7326 0.4987 -0.4632
vn -0.7356 0.5831 -0.3446
vn -0.7358 0.5830 -0.3446
vn -0.6970 0.6758 -0.2400
vn -0.6972 0.6756 -0.2398
vn -0.6403 0.7565 -0.1327
vn -0.5549 0.8309 -0.0407
vn -0.5547 0.8311 -0.0409
vn -0.4416 0.8969 0.0239
vn -0.4415 0.8969 0.0237
vn 0.4941 0.8694 0.0012
vn -0.4927 0.1704 -0.8534
vn -0.6405 0.7564 -0.1325
usemtl external_contoller_01:blinn1SG.002
s 1
f 2/1/1 4/2/2 1/3/3
f 5/4/4 3/5/5 2/1/1
f 5/4/4 8/6/6 6/7/7
f 9/8/8 8/6/6 7/9/9
f 9/8/8 12/10/10 10/11/11
f 13/12/12 12/10/10 11/13/13
f 13/12/12 16/14/14 14/15/15
f 15/16/14 18/17/16 16/14/14
f 17/18/17 20/19/18 18/17/16
f 21/20/19 20/19/18 19/21/20
f 23/22/21 22/23/22 21/20/19
f 25/24/23 24/25/21 23/22/21
f 25/24/23 28/26/24 26/27/25
f 27/28/26 30/29/27 28/26/24
f 29/30/28 32/31/29 30/29/27
f 33/32/30 32/31/29 31/33/31
f 33/32/30 36/34/32 34/35/33
f 37/36/34 36/34/32 35/37/35
f 37/36/34 40/38/36 38/39/37
f 41/40/38 40/38/36 39/41/39
f 43/42/40 42/43/41 41/40/38
f 43/42/40 46/44/42 44/45/43
f 47/46/44 46/44/42 45/47/45
f 49/48/46 48/49/47 47/46/44
f 49/48/46 52/50/48 50/51/49
f 53/52/50 52/50/48 51/53/51
f 53/52/50 56/54/52 54/55/50
f 55/56/53 58/57/54 56/54/52
f 57/58/55 60/59/56 58/57/54
f 61/60/57 60/59/56 59/61/58
f 61/60/57 64/62/59 62/63/60
f 1/3/3 64/62/59 63/64/61
f 65/65/62 67/66/63 68/67/64
f 66/68/65 70/69/66 67/66/63
f 69/70/67 72/71/68 70/69/66
f 73/72/69 72/71/68 71/73/70
f 75/74/71 74/75/72 73/72/69
f 77/76/73 76/77/74 75/74/71
f 77/76/73 80/78/75 78/79/76
f 79/80/77 82/81/78 80/78/75
f 81/82/79 84/83/80 82/81/78
f 83/84/81 86/85/82 84/83/80
f 85/86/83 88/87/84 86/85/82
f 87/88/85 90/89/86 88/87/84
f 89/90/87 92/91/88 90/89/86
f 91/92/89 94/93/90 92/91/88
f 93/94/91 96/95/92 94/93/90
f 95/96/93 98/97/94 96/95/92
f 97/98/95 100/99/96 98/97/94
f 99/100/97 102/101/98 100/99/96
f 101/102/99 104/103/100 102/101/98
f 105/104/101 104/103/100 103/105/102
f 107/106/103 106/107/104 105/104/101
f 107/106/103 110/108/105 108/109/106
f 111/110/107 110/108/105 109/111/108
f 113/112/109 112/113/110 111/110/107
f 115/114/111 114/115/112 113/112/109
f 117/116/113 116/117/114 115/114/111
f 119/118/115 118/119/116 117/116/113
f 119/118/115 122/120/117 120/121/118
f 121/122/119 124/123/120 122/120/117
f 123/124/121 126/125/122 124/123/120
f 127/126/123 126/125/122 125/127/124
f 65/65/62 128/128/125 127/126/123
f 129/129/126 130/130/127 131/131/128
f 132/132/129 130/130/127 129/129/126
f 133/133/130 130/130/127 132/132/129
f 134/134/131 130/130/127 133/133/130
f 135/135/132 130/130/127 134/134/131
f 136/136/133 130/130/127 135/135/132
f 137/137/134 130/130/127 136/136/133
f 138/138/135 130/130/127 137/137/134
f 139/139/136 130/130/127 138/138/135
f 140/140/137 130/130/127 139/139/136
f 141/141/138 130/130/127 140/140/137
f 142/142/139 130/130/127 141/141/138
f 143/143/139 130/130/127 142/142/139
f 144/144/140 130/130/127 143/143/139
f 145/145/141 130/130/127 144/144/140
f 146/146/142 130/130/127 145/145/141
f 147/147/143 130/130/127 146/146/142
f 148/148/144 130/130/127 147/147/143
f 149/149/145 130/130/127 148/148/144
f 150/150/146 130/130/127 149/149/145
f 151/151/147 130/130/127 150/150/146
f 152/152/117 130/130/127 151/151/147
f 153/153/148 130/130/127 152/152/117
f 154/154/149 130/130/127 153/153/148
f 155/155/150 130/130/127 154/154/149
f 156/156/151 130/130/127 155/155/150
f 157/157/152 130/130/127 156/156/151
f 158/158/153 130/130/127 157/157/152
f 159/159/154 130/130/127 158/158/153
f 160/160/155 130/130/127 159/159/154
f 161/161/156 130/130/127 160/160/155
f 131/131/128 130/130/127 161/161/156
f 4/2/157 127/126/158 64/62/159
f 65/65/160 3/5/161 66/68/162
f 66/68/162 6/7/163 69/70/164
f 69/70/164 8/6/165 71/73/166
f 8/6/165 73/72/167 71/73/166
f 10/11/168 75/74/169 73/72/167
f 75/74/169 14/15/170 77/76/171
f 77/76/171 16/14/172 79/80/173
f 79/80/173 18/17/174 81/82/174
f 81/82/174 20/19/175 83/84/176
f 83/84/176 22/23/177 85/86/178
f 85/86/178 24/25/179 87/88/180
f 87/88/180 26/27/181 89/90/182
f 89/90/182 28/26/183 91/92/184
f 91/92/184 30/29/185 93/94/186
f 93/94/186 32/31/187 95/96/188
f 95/96/188 34/35/189 97/98/190
f 97/98/190 36/34/191 99/100/191
f 99/100/191 38/39/192 101/102/193
f 101/102/193 40/38/194 103/105/195
f 40/38/194 105/104/196 103/105/195
f 42/43/197 107/106/198 105/104/196
f 107/106/198 46/44/199 109/111/200
f 109/111/200 48/49/201 111/110/202
f 48/49/201 113/112/203 111/110/202
f 50/51/204 115/114/205 113/112/203
f 52/50/206 117/116/207 115/114/205
f 54/55/208 119/118/209 117/116/207
f 56/54/210 121/122/211 119/118/209
f 121/122/211 60/59/212 123/124/213
f 123/124/213 62/63/214 125/127/215
f 125/127/215 64/62/159 127/126/158
f 131/131/128 128/128/125 68/67/64
f 68/67/64 129/129/126 131/131/128
f 129/129/126 70/69/66 132/132/129
f 132/132/129 72/71/68 133/133/130
f 72/71/68 134/134/131 133/133/130
f 74/75/72 135/135/132 134/134/131
f 76/77/74 136/136/133 135/135/132
f 136/136/133 80/78/75 137/137/134
f 137/137/134 82/81/78 138/138/135
f 138/138/135 84/83/80 139/139/136
f 139/139/136 86/85/82 140/140/137
f 140/140/137 88/87/84 141/141/138
f 141/141/138 90/89/86 142/142/139
f 90/89/86 143/143/139 142/142/139
f 92/91/88 144/144/140 143/143/139
f 144/144/140 96/95/92 145/145/141
f 96/95/92 146/146/142 145/145/141
f 98/97/94 147/147/143 146/146/142
f 147/147/143 102/101/98 148/148/144
f 148/148/144 104/103/100 149/149/145
f 104/103/100 150/150/146 149/149/145
f 106/107/104 151/151/147 150/150/146
f 108/109/106 152/152/117 151/151/147
f 110/108/105 153/153/148 152/152/117
f 112/113/110 154/154/149 153/153/148
f 114/115/112 155/155/150 154/154/149
f 116/117/114 156/156/151 155/155/150
f 156/156/151 120/121/118 157/157/152
f 157/157/152 122/120/117 158/158/153
f 158/158/153 124/123/120 159/159/154
f 124/123/120 160/160/155 159/159/154
f 126/125/122 161/161/156 160/160/155
f 2/1/1 3/5/5 4/2/2
f 5/4/4 6/7/7 3/5/5
f 5/4/4 7/9/9 8/6/6
f 9/8/8 10/11/11 8/6/6
f 9/8/8 11/13/13 12/10/10
f 13/12/12 14/15/15 12/10/10
f 13/12/12 15/16/14 16/14/14
f 15/16/14 17/18/17 18/17/16
f 17/18/17 19/21/20 20/19/18
f 21/20/19 22/23/22 20/19/18
f 23/22/21 24/25/21 22/23/22
f 25/24/23 26/27/25 24/25/21
f 25/24/23 27/28/26 28/26/24
f 27/28/26 29/30/28 30/29/27
f 29/30/28 31/33/31 32/31/29
f 33/32/30 34/35/33 32/31/29
f 33/32/30 35/37/35 36/34/32
f 37/36/34 38/39/37 36/34/32
f 37/36/34 39/41/39 40/38/36
f 41/40/38 42/43/41 40/38/36
f 43/42/40 44/45/43 42/43/41
f 43/42/40 45/47/45 46/44/42
f 47/46/44 48/49/47 46/44/42
f 49/48/46 50/51/49 48/49/47
f 49/48/46 51/53/51 52/50/48
f 53/52/50 54/55/50 52/50/48
f 53/52/50 55/56/53 56/54/52
f 55/56/53 57/58/55 58/57/54
f 57/58/55 59/61/58 60/59/56
f 61/60/57 62/63/60 60/59/56
f 61/60/57 63/64/61 64/62/59
f 1/3/3 4/2/2 64/62/59
f 65/65/62 66/68/65 67/66/63
f 66/68/65 69/70/67 70/69/66
f 69/70/67 71/73/70 72/71/68
f 73/72/69 74/75/72 72/71/68
f 75/74/71 76/77/74 74/75/72
f 77/76/73 78/79/76 76/77/74
f 77/76/73 79/80/77 80/78/75
f 79/80/77 81/82/79 82/81/78
f 81/82/79 83/84/81 84/83/80
f 83/84/81 85/86/83 86/85/82
f 85/86/83 87/88/85 88/87/84
f 87/88/85 89/90/87 90/89/86
f 89/90/87 91/92/89 92/91/88
f 91/92/89 93/94/91 94/93/90
f 93/94/91 95/96/93 96/95/92
f 95/96/93 97/98/95 98/97/94
f 97/98/95 99/100/97 100/99/96
f 99/100/97 101/102/99 102/101/98
f 101/102/99 103/105/102 104/103/100
f 105/104/101 106/107/104 104/103/100
f 107/106/103 108/109/106 106/107/104
f 107/106/103 109/111/108 110/108/105
f 111/110/107 112/113/110 110/108/105
f 113/112/109 114/115/112 112/113/110
f 115/114/111 116/117/114 114/115/112
f 117/116/113 118/119/116 116/117/114
f 119/118/115 120/121/118 118/119/116
f 119/118/115 121/122/119 122/120/117
f 121/122/119 123/124/121 124/123/120
f 123/124/121 125/127/124 126/125/122
f 127/126/123 128/128/125 126/125/122
f 65/65/62 68/67/64 128/128/125
f 4/2/157 65/65/160 127/126/158
f 65/65/160 4/2/157 3/5/161
f 66/68/162 3/5/161 6/7/163
f 69/70/164 6/7/163 8/6/165
f 8/6/165 10/11/168 73/72/167
f 10/11/168 12/10/216 75/74/169
f 75/74/169 12/10/216 14/15/170
f 77/76/171 14/15/170 16/14/172
f 79/80/173 16/14/172 18/17/174
f 81/82/174 18/17/174 20/19/175
f 83/84/176 20/19/175 22/23/177
f 85/86/178 22/23/177 24/25/179
f 87/88/180 24/25/179 26/27/181
f 89/90/182 26/27/181 28/26/183
f 91/92/184 28/26/183 30/29/185
f 93/94/186 30/29/185 32/31/187
f 95/96/188 32/31/187 34/35/189
f 97/98/190 34/35/189 36/34/191
f 99/100/191 36/34/191 38/39/192
f 101/102/193 38/39/192 40/38/194
f 40/38/194 42/43/197 105/104/196
f 42/43/197 44/45/217 107/106/198
f 107/106/198 44/45/217 46/44/199
f 109/111/200 46/44/199 48/49/201
f 48/49/201 50/51/204 113/112/203
f 50/51/204 52/50/206 115/114/205
f 52/50/206 54/55/208 117/116/207
f 54/55/208 56/54/210 119/118/209
f 56/54/210 58/57/218 121/122/211
f 121/122/211 58/57/218 60/59/212
f 123/124/213 60/59/212 62/63/214
f 125/127/215 62/63/214 64/62/159
f 131/131/128 161/161/156 128/128/125
f 68/67/64 67/66/63 129/129/126
f 129/129/126 67/66/63 70/69/66
f 132/132/129 70/69/66 72/71/68
f 72/71/68 74/75/72 134/134/131
f 74/75/72 76/77/74 135/135/132
f 76/77/74 78/79/76 136/136/133
f 136/136/133 78/79/76 80/78/75
f 137/137/134 80/78/75 82/81/78
f 138/138/135 82/81/78 84/83/80
f 139/139/136 84/83/80 86/85/82
f 140/140/137 86/85/82 88/87/84
f 141/141/138 88/87/84 90/89/86
f 90/89/86 92/91/88 143/143/139
f 92/91/88 94/93/90 144/144/140
f 144/144/140 94/93/90 96/95/92
f 96/95/92 98/97/94 146/146/142
f 98/97/94 100/99/96 147/147/143
f 147/147/143 100/99/96 102/101/98
f 148/148/144 102/101/98 104/103/100
f 104/103/100 106/107/104 150/150/146
f 106/107/104 108/109/106 151/151/147
f 108/109/106 110/108/105 152/152/117
f 110/108/105 112/113/110 153/153/148
f 112/113/110 114/115/112 154/154/149
f 114/115/112 116/117/114 155/155/150
f 116/117/114 118/119/116 156/156/151
f 156/156/151 118/119/116 120/121/118
f 157/157/152 120/121/118 122/120/117
f 158/158/153 122/120/117 124/123/120
f 124/123/120 126/125/122 160/160/155
f 126/125/122 128/128/125 161/161/156
