# Blender v2.81 (sub 16) OBJ File: ''
# www.blender.org
mtllib softCube.mtl
o Cube
v 1.000000 0.910000 0.910000
v 0.910000 1.000000 0.910000
v 0.910000 0.910000 1.000000
v 0.987976 0.954941 0.910000
v 0.987976 0.910000 0.954941
v 0.976297 0.953039 0.953039
v 0.910000 0.987976 0.954941
v 0.954941 0.987976 0.910000
v 0.953039 0.976297 0.953039
v 0.954941 0.910000 0.987976
v 0.910000 0.954941 0.987976
v 0.953039 0.953039 0.976297
v 0.910000 -1.000000 0.910000
v 1.000000 -0.910000 0.910000
v 0.910000 -0.910000 1.000000
v 0.954941 -0.987976 0.910000
v 0.910000 -0.987976 0.954941
v 0.953039 -0.976297 0.953039
v 0.987976 -0.910000 0.954941
v 0.987976 -0.954941 0.910000
v 0.976297 -0.953039 0.953039
v 0.910000 -0.954941 0.987976
v 0.954941 -0.910000 0.987976
v 0.953039 -0.953039 0.976297
v -0.910000 0.910000 1.000000
v -0.910000 1.000000 0.910000
v -1.000000 0.910000 0.910000
v -0.910000 0.954941 0.987976
v -0.954941 0.910000 0.987976
v -0.953039 0.953039 0.976297
v -0.954941 0.987976 0.910000
v -0.910000 0.987976 0.954941
v -0.953039 0.976297 0.953039
v -0.987976 0.910000 0.954941
v -0.987976 0.954941 0.910000
v -0.976297 0.953039 0.953039
v -0.910000 -0.910000 1.000000
v -1.000000 -0.910000 0.910000
v -0.910000 -1.000000 0.910000
v -0.954941 -0.910000 0.987976
v -0.910000 -0.954941 0.987976
v -0.953039 -0.953039 0.976297
v -0.987976 -0.954941 0.910000
v -0.987976 -0.910000 0.954941
v -0.976297 -0.953039 0.953039
v -0.910000 -0.987976 0.954941
v -0.954941 -0.987976 0.910000
v -0.953039 -0.976297 0.953039
v 1.000000 0.910000 -0.910000
v 0.910000 0.910000 -1.000000
v 0.910000 1.000000 -0.910000
v 0.987976 0.910000 -0.954941
v 0.987976 0.954941 -0.910000
v 0.976297 0.953039 -0.953039
v 0.910000 0.954941 -0.987976
v 0.954941 0.910000 -0.987976
v 0.953039 0.953039 -0.976297
v 0.954941 0.987976 -0.910000
v 0.910000 0.987976 -0.954941
v 0.953039 0.976297 -0.953039
v 0.910000 -0.910000 -1.000000
v 1.000000 -0.910000 -0.910000
v 0.910000 -1.000000 -0.910000
v 0.954941 -0.910000 -0.987976
v 0.910000 -0.954941 -0.987976
v 0.953039 -0.953039 -0.976297
v 0.987976 -0.954941 -0.910000
v 0.987976 -0.910000 -0.954941
v 0.976297 -0.953039 -0.953039
v 0.910000 -0.987976 -0.954941
v 0.954941 -0.987976 -0.910000
v 0.953039 -0.976297 -0.953039
v -0.910000 0.910000 -1.000000
v -1.000000 0.910000 -0.910000
v -0.910000 1.000000 -0.910000
v -0.954941 0.910000 -0.987976
v -0.910000 0.954941 -0.987976
v -0.953039 0.953039 -0.976297
v -0.987976 0.954941 -0.910000
v -0.987976 0.910000 -0.954941
v -0.976297 0.953039 -0.953039
v -0.910000 0.987976 -0.954941
v -0.954941 0.987976 -0.910000
v -0.953039 0.976297 -0.953039
v -0.910000 -1.000000 -0.910000
v -1.000000 -0.910000 -0.910000
v -0.910000 -0.910000 -1.000000
v -0.954941 -0.987976 -0.910000
v -0.910000 -0.987976 -0.954941
v -0.953039 -0.976297 -0.953039
v -0.987976 -0.910000 -0.954941
v -0.987976 -0.954941 -0.910000
v -0.976297 -0.953039 -0.953039
v -0.910000 -0.954941 -0.987976
v -0.954941 -0.910000 -0.987976
v -0.953039 -0.953039 -0.976297
vt 0.363750 0.511250
vt 0.136250 0.738750
vt 0.136250 0.511250
vt 0.613750 0.011250
vt 0.386250 0.238750
vt 0.386250 0.011250
vt 0.613750 0.761250
vt 0.386250 0.988750
vt 0.386250 0.761250
vt 0.863750 0.511250
vt 0.636250 0.738750
vt 0.636250 0.511250
vt 0.613750 0.511250
vt 0.386250 0.738750
vt 0.386250 0.511250
vt 0.619368 0.488750
vt 0.613750 0.494368
vt 0.613750 0.488750
vt 0.625000 0.494130
vt 0.619130 0.494130
vt 0.630632 0.511250
vt 0.636250 0.505632
vt 0.619368 0.511250
vt 0.630870 0.505870
vt 0.613750 0.505632
vt 0.619130 0.505870
vt 0.619130 0.500000
vt 0.363750 0.505632
vt 0.369368 0.511250
vt 0.363750 0.500000
vt 0.369130 0.505870
vt 0.386250 0.494368
vt 0.380632 0.488750
vt 0.386250 0.488750
vt 0.386250 0.505632
vt 0.380870 0.494130
vt 0.380632 0.511250
vt 0.380870 0.505870
vt 0.369130 0.500000
vt 0.375000 0.505870
vt 0.619368 0.738750
vt 0.613750 0.744368
vt 0.613750 0.738750
vt 0.630870 0.744130
vt 0.619130 0.744130
vt 0.636250 0.744368
vt 0.630632 0.738750
vt 0.636250 0.750000
vt 0.613750 0.755632
vt 0.619368 0.761250
vt 0.619130 0.755870
vt 0.625000 0.744130
vt 0.619130 0.750000
vt 0.386250 0.744368
vt 0.380632 0.738750
vt 0.386250 0.755632
vt 0.380870 0.744130
vt 0.380632 0.761250
vt 0.375000 0.755870
vt 0.380870 0.755870
vt 0.369368 0.738750
vt 0.363750 0.744368
vt 0.363750 0.738750
vt 0.369130 0.744130
vt 0.380870 0.750000
vt 0.375000 0.744130
vt 0.613750 0.255632
vt 0.619368 0.261250
vt 0.613750 0.261250
vt 0.613750 0.244368
vt 0.619130 0.255870
vt 0.619368 0.238750
vt 0.613750 0.238750
vt 0.625000 0.244130
vt 0.619130 0.244130
vt 0.863750 0.505632
vt 0.869368 0.511250
vt 0.863750 0.500000
vt 0.869130 0.505870
vt 0.619130 0.250000
vt 0.625000 0.255870
vt 0.386250 0.244368
vt 0.380632 0.238750
vt 0.386250 0.255632
vt 0.380870 0.244130
vt 0.380632 0.261250
vt 0.386250 0.261250
vt 0.375000 0.255870
vt 0.380870 0.255870
vt 0.130632 0.511250
vt 0.136250 0.505632
vt 0.125000 0.511250
vt 0.130870 0.505870
vt 0.380870 0.250000
vt 0.375000 0.244130
vt 0.613750 0.005632
vt 0.619368 0.011250
vt 0.613750 0.000000
vt 0.619130 0.005870
vt 0.619368 0.988750
vt 0.613750 0.994368
vt 0.613750 0.988750
vt 0.625000 0.994130
vt 0.619130 0.994130
vt 0.869368 0.738750
vt 0.863750 0.744368
vt 0.863750 0.738750
vt 0.875000 0.738750
vt 0.869130 0.744130
vt 0.619130 0.000000
vt 0.625000 0.005870
vt 0.136250 0.744368
vt 0.130632 0.738750
vt 0.136250 0.750000
vt 0.130870 0.744130
vt 0.386250 0.994368
vt 0.380632 0.988750
vt 0.386250 1.000000
vt 0.380870 0.994130
vt 0.380632 0.011250
vt 0.386250 0.005632
vt 0.375000 0.005870
vt 0.380870 0.005870
vt 0.130870 0.750000
vt 0.125000 0.744130
vt 0.625000 0.488750
vt 0.630870 0.750000
vt 0.375000 0.761250
vt 0.625000 0.238750
vt 0.869130 0.500000
vt 0.375000 0.261250
vt 0.125000 0.505870
vt 0.625000 0.988750
vt 0.875000 0.744130
vt 0.380870 1.000000
vt 0.375000 0.011250
vt 0.125000 0.738750
vt 0.136250 0.500000
vt 0.613750 1.000000
vt 0.863750 0.750000
vt 0.363750 0.750000
vt 0.875000 0.511250
vt 0.636250 0.500000
vn 0.1280 -0.9835 0.1280
vn -0.1280 -0.9835 -0.1280
vn 0.1280 -0.9835 -0.1280
vn -0.1280 0.1280 -0.9835
vn 0.1280 -0.1280 -0.9835
vn -0.1280 -0.1280 -0.9835
vn -0.9835 0.1280 0.1280
vn -0.9835 -0.1280 -0.1280
vn -0.9835 -0.1280 0.1280
vn 0.1280 0.9835 -0.1280
vn -0.1280 0.9835 0.1280
vn 0.1280 0.9835 0.1280
vn 0.1280 0.1280 0.9835
vn -0.1280 -0.1280 0.9835
vn 0.1280 -0.1280 0.9835
vn 0.8623 0.4916 0.1216
vn 0.8623 0.1216 0.4916
vn 0.9835 0.1280 0.1280
vn 0.4488 0.7727 0.4488
vn 0.7727 0.4488 0.4488
vn 0.1216 0.8623 0.4916
vn 0.4916 0.8623 0.1216
vn 0.1216 0.4916 0.8623
vn 0.4916 0.1216 0.8623
vn 0.4488 0.4488 0.7727
vn 0.4916 -0.8623 0.1216
vn 0.1216 -0.8623 0.4916
vn 0.8623 -0.4916 0.1216
vn 0.4488 -0.7727 0.4488
vn 0.8623 -0.1216 0.4916
vn 0.9835 -0.1280 0.1280
vn 0.4916 -0.1216 0.8623
vn 0.7727 -0.4488 0.4488
vn 0.1216 -0.4916 0.8623
vn 0.4488 -0.4488 0.7727
vn -0.1216 0.4916 0.8623
vn -0.4916 0.1216 0.8623
vn -0.1280 0.1280 0.9835
vn -0.4488 0.7727 0.4488
vn -0.4488 0.4488 0.7727
vn -0.4916 0.8623 0.1216
vn -0.1216 0.8623 0.4916
vn -0.8623 0.4916 0.1216
vn -0.8623 0.1216 0.4916
vn -0.7727 0.4488 0.4488
vn -0.4916 -0.1216 0.8623
vn -0.1216 -0.4916 0.8623
vn -0.8623 -0.1216 0.4916
vn -0.4488 -0.4488 0.7727
vn -0.8623 -0.4916 0.1216
vn -0.4488 -0.7727 0.4488
vn -0.7727 -0.4488 0.4488
vn -0.1216 -0.8623 0.4916
vn -0.4916 -0.8623 0.1216
vn -0.1280 -0.9835 0.1280
vn 0.8623 0.1216 -0.4916
vn 0.8623 0.4916 -0.1216
vn 0.9835 0.1280 -0.1280
vn 0.4916 0.1216 -0.8623
vn 0.7727 0.4488 -0.4488
vn 0.1216 0.4916 -0.8623
vn 0.1280 0.1280 -0.9835
vn 0.4488 0.7727 -0.4488
vn 0.4488 0.4488 -0.7727
vn 0.4916 0.8623 -0.1216
vn 0.1216 0.8623 -0.4916
vn 0.4916 -0.1216 -0.8623
vn 0.1216 -0.4916 -0.8623
vn 0.8623 -0.1216 -0.4916
vn 0.4488 -0.4488 -0.7727
vn 0.8623 -0.4916 -0.1216
vn 0.9835 -0.1280 -0.1280
vn 0.4488 -0.7727 -0.4488
vn 0.7727 -0.4488 -0.4488
vn 0.1216 -0.8623 -0.4916
vn 0.4916 -0.8623 -0.1216
vn -0.4916 0.1216 -0.8623
vn -0.1216 0.4916 -0.8623
vn -0.8623 0.1216 -0.4916
vn -0.4488 0.4488 -0.7727
vn -0.8623 0.4916 -0.1216
vn -0.9835 0.1280 -0.1280
vn -0.4488 0.7727 -0.4488
vn -0.7727 0.4488 -0.4488
vn -0.1216 0.8623 -0.4916
vn -0.4916 0.8623 -0.1216
vn -0.1280 0.9835 -0.1280
vn -0.4916 -0.8623 -0.1216
vn -0.1216 -0.8623 -0.4916
vn -0.8623 -0.4916 -0.1216
vn -0.4488 -0.7727 -0.4488
vn -0.8623 -0.1216 -0.4916
vn -0.4916 -0.1216 -0.8623
vn -0.7727 -0.4488 -0.4488
vn -0.1216 -0.4916 -0.8623
vn -0.4488 -0.4488 -0.7727
usemtl Material
s 1
f 13/1/1 85/2/2 63/3/3
f 73/4/4 61/5/5 87/6/6
f 27/7/7 86/8/8 38/9/9
f 51/10/10 26/11/11 2/12/12
f 3/13/13 37/14/14 15/15/15
f 4/16/16 5/17/17 1/18/18
f 4/16/16 9/19/19 6/20/20
f 7/21/21 8/22/22 2/12/12
f 11/23/23 9/24/19 7/21/21
f 10/25/24 11/23/23 3/13/13
f 5/17/17 12/26/25 10/25/24
f 6/20/20 9/19/19 12/27/25
f 16/28/26 17/29/27 13/1/1
f 20/30/28 18/31/29 16/28/26
f 19/32/30 20/33/28 14/34/31
f 23/35/32 21/36/33 19/32/30
f 22/37/34 23/35/32 15/15/15
f 22/37/34 18/31/29 24/38/35
f 18/31/29 21/39/33 24/40/35
f 28/41/36 29/42/37 25/43/38
f 28/41/36 33/44/39 30/45/40
f 31/46/41 32/47/42 26/11/11
f 35/48/43 33/44/39 31/46/41
f 34/49/44 35/50/43 27/7/7
f 29/42/37 36/51/45 34/49/44
f 30/45/40 33/52/39 36/53/45
f 40/54/46 41/55/47 37/14/14
f 44/56/48 42/57/49 40/54/46
f 43/58/50 44/56/48 38/9/9
f 43/58/50 48/59/51 45/60/52
f 46/61/53 47/62/54 39/63/55
f 41/55/47 48/64/51 46/61/53
f 42/57/49 45/65/52 48/66/51
f 52/67/56 53/68/57 49/69/58
f 56/70/59 54/71/60 52/67/56
f 55/72/61 56/70/59 50/73/62
f 55/72/61 60/74/63 57/75/64
f 58/76/65 59/77/66 51/10/10
f 53/78/57 60/79/63 58/76/65
f 54/71/60 57/80/64 60/81/63
f 64/82/67 65/83/68 61/5/5
f 68/84/69 66/85/70 64/82/67
f 67/86/71 68/84/69 62/87/72
f 67/86/71 72/88/73 69/89/74
f 70/90/75 71/91/76 63/3/3
f 65/92/68 72/93/73 70/90/75
f 66/85/70 69/94/74 72/95/73
f 76/96/77 77/97/78 73/4/4
f 80/98/79 78/99/80 76/96/77
f 79/100/81 80/101/79 74/102/82
f 79/100/81 84/103/83 81/104/84
f 82/105/85 83/106/86 75/107/87
f 77/108/78 84/109/83 82/105/85
f 78/99/80 81/110/84 84/111/83
f 88/112/88 89/113/89 85/2/2
f 92/114/90 90/115/91 88/112/88
f 91/116/92 92/117/90 86/8/8
f 95/118/93 93/119/94 91/116/92
f 94/120/95 95/121/93 87/6/6
f 94/120/95 90/122/91 96/123/96
f 90/115/91 93/124/94 96/125/96
f 85/2/2 70/90/75 63/3/3
f 89/113/89 65/92/68 70/90/75
f 94/120/95 61/5/5 65/83/68
f 63/3/3 16/28/26 13/1/1
f 71/91/76 20/30/28 16/28/26
f 67/86/71 14/34/31 20/33/28
f 15/15/15 10/25/24 3/13/13
f 23/35/32 5/17/17 10/25/24
f 19/32/30 1/18/18 5/17/17
f 74/102/82 91/116/92 86/8/8
f 80/101/79 95/118/93 91/116/92
f 76/96/77 87/6/6 95/121/93
f 38/9/9 34/49/44 27/7/7
f 44/56/48 29/42/37 34/49/44
f 40/54/46 25/43/38 29/42/37
f 62/87/72 52/67/56 49/69/58
f 68/84/69 56/70/59 52/67/56
f 64/82/67 50/73/62 56/70/59
f 75/107/87 31/46/41 26/11/11
f 83/106/86 35/48/43 31/46/41
f 79/100/81 27/7/7 35/50/43
f 26/11/11 7/21/21 2/12/12
f 32/47/42 11/23/23 7/21/21
f 28/41/36 3/13/13 11/23/23
f 39/63/55 88/112/88 85/2/2
f 47/62/54 92/114/90 88/112/88
f 43/58/50 86/8/8 92/117/90
f 51/10/10 82/105/85 75/107/87
f 59/77/66 77/108/78 82/105/85
f 55/72/61 73/4/4 77/97/78
f 2/12/12 58/76/65 51/10/10
f 8/22/22 53/78/57 58/76/65
f 4/16/16 49/69/58 53/68/57
f 13/1/1 46/61/53 39/63/55
f 17/29/27 41/55/47 46/61/53
f 22/37/34 37/14/14 41/55/47
f 49/69/58 14/34/31 62/87/72
f 13/1/1 39/63/55 85/2/2
f 73/4/4 50/73/62 61/5/5
f 27/7/7 74/102/82 86/8/8
f 51/10/10 75/107/87 26/11/11
f 3/13/13 25/43/38 37/14/14
f 4/16/16 6/20/20 5/17/17
f 4/16/16 8/126/22 9/19/19
f 7/21/21 9/24/19 8/22/22
f 11/23/23 12/26/25 9/24/19
f 10/25/24 12/26/25 11/23/23
f 5/17/17 6/20/20 12/26/25
f 16/28/26 18/31/29 17/29/27
f 20/30/28 21/39/33 18/31/29
f 19/32/30 21/36/33 20/33/28
f 23/35/32 24/38/35 21/36/33
f 22/37/34 24/38/35 23/35/32
f 22/37/34 17/29/27 18/31/29
f 28/41/36 30/45/40 29/42/37
f 28/41/36 32/47/42 33/44/39
f 31/46/41 33/44/39 32/47/42
f 35/48/43 36/127/45 33/44/39
f 34/49/44 36/51/45 35/50/43
f 29/42/37 30/45/40 36/51/45
f 40/54/46 42/57/49 41/55/47
f 44/56/48 45/60/52 42/57/49
f 43/58/50 45/60/52 44/56/48
f 43/58/50 47/128/54 48/59/51
f 46/61/53 48/64/51 47/62/54
f 41/55/47 42/57/49 48/64/51
f 52/67/56 54/71/60 53/68/57
f 56/70/59 57/75/64 54/71/60
f 55/72/61 57/75/64 56/70/59
f 55/72/61 59/129/66 60/74/63
f 58/76/65 60/79/63 59/77/66
f 53/78/57 54/130/60 60/79/63
f 64/82/67 66/85/70 65/83/68
f 68/84/69 69/89/74 66/85/70
f 67/86/71 69/89/74 68/84/69
f 67/86/71 71/131/76 72/88/73
f 70/90/75 72/93/73 71/91/76
f 65/92/68 66/132/70 72/93/73
f 76/96/77 78/99/80 77/97/78
f 80/98/79 81/110/84 78/99/80
f 79/100/81 81/104/84 80/101/79
f 79/100/81 83/133/86 84/103/83
f 82/105/85 84/109/83 83/106/86
f 77/108/78 78/134/80 84/109/83
f 88/112/88 90/115/91 89/113/89
f 92/114/90 93/124/94 90/115/91
f 91/116/92 93/119/94 92/117/90
f 95/118/93 96/135/96 93/119/94
f 94/120/95 96/123/96 95/121/93
f 94/120/95 89/136/89 90/122/91
f 85/2/2 89/113/89 70/90/75
f 89/113/89 94/137/95 65/92/68
f 94/120/95 87/6/6 61/5/5
f 63/3/3 71/91/76 16/28/26
f 71/91/76 67/138/71 20/30/28
f 67/86/71 62/87/72 14/34/31
f 15/15/15 23/35/32 10/25/24
f 23/35/32 19/32/30 5/17/17
f 19/32/30 14/34/31 1/18/18
f 74/102/82 80/101/79 91/116/92
f 80/101/79 76/139/77 95/118/93
f 76/96/77 73/4/4 87/6/6
f 38/9/9 44/56/48 34/49/44
f 44/56/48 40/54/46 29/42/37
f 40/54/46 37/14/14 25/43/38
f 62/87/72 68/84/69 52/67/56
f 68/84/69 64/82/67 56/70/59
f 64/82/67 61/5/5 50/73/62
f 75/107/87 83/106/86 31/46/41
f 83/106/86 79/140/81 35/48/43
f 79/100/81 74/102/82 27/7/7
f 26/11/11 32/47/42 7/21/21
f 32/47/42 28/41/36 11/23/23
f 28/41/36 25/43/38 3/13/13
f 39/63/55 47/62/54 88/112/88
f 47/62/54 43/141/50 92/114/90
f 43/58/50 38/9/9 86/8/8
f 51/10/10 59/77/66 82/105/85
f 59/77/66 55/142/61 77/108/78
f 55/72/61 50/73/62 73/4/4
f 2/12/12 8/22/22 58/76/65
f 8/22/22 4/143/16 53/78/57
f 4/16/16 1/18/18 49/69/58
f 13/1/1 17/29/27 46/61/53
f 17/29/27 22/37/34 41/55/47
f 22/37/34 15/15/15 37/14/14
f 49/69/58 1/18/18 14/34/31
