# Blender v2.81 (sub 16) OBJ File: 'buttons.blend'
# www.blender.org
mtllib 5x5.mtl
o 5x5cm_button_Plane.001
v -0.019620 -0.019620 -0.000000
v -0.019620 0.019620 0.000000
v 0.019620 -0.019620 -0.000000
v 0.019620 0.019620 0.000000
v 0.018667 -0.020000 -0.000000
v -0.018667 -0.020000 -0.000000
v 0.018667 0.020000 0.000000
v -0.018667 0.020000 0.000000
v -0.020000 -0.018667 -0.000000
v -0.020000 0.018667 0.000000
v 0.020000 -0.018667 -0.000000
v 0.020000 0.018667 0.000000
v 0.018881 0.018881 0.005200
v 0.019246 0.017963 0.005200
v -0.018881 0.018881 0.005200
v -0.019246 0.017963 0.005200
v -0.020000 0.018667 0.004531
v -0.019620 0.019620 0.004531
v 0.020000 0.018667 0.004531
v 0.019620 0.019620 0.004531
v -0.018667 -0.020000 0.004531
v -0.019620 -0.019620 0.004531
v -0.018667 0.020000 0.004531
v 0.019620 -0.019620 0.004531
v 0.018667 -0.020000 0.004531
v 0.018667 0.020000 0.004531
v -0.020000 -0.018667 0.004531
v 0.020000 -0.018667 0.004531
v -0.017963 -0.019246 0.005200
v -0.018881 -0.018881 0.005200
v -0.017963 0.019246 0.005200
v 0.018881 -0.018881 0.005200
v 0.017963 -0.019246 0.005200
v 0.017963 0.019246 0.005200
v -0.017963 0.017963 0.005200
v 0.017963 0.017963 0.005200
v -0.019246 -0.017963 0.005200
v 0.019246 -0.017963 0.005200
v -0.017963 -0.017963 0.005200
v 0.017963 -0.017963 0.005200
vt 0.999900 0.999900
vt 0.000100 0.000100
vt 0.999900 0.000100
vt 0.000100 0.999900
vt 0.666667 0.333333
vt 0.555556 0.333333
vt 0.555556 0.333333
vt 0.666667 0.444444
vt 0.666667 0.555556
vt 0.666667 0.444444
vt 0.444444 0.666667
vt 0.555555 0.666667
vt 0.555555 0.666667
vt 0.666667 0.666667
vt 0.666667 0.555556
vt 0.666667 0.333333
vt 0.666667 0.666667
vt 0.333333 0.444444
vt 0.333333 0.555556
vt 0.333333 0.555556
vt 0.333333 0.666667
vt 0.444444 0.666667
vt 0.444444 0.333333
vt 0.444444 0.333333
vt 0.444444 0.333333
vt 0.666667 0.666667
vt 0.666667 0.555556
vt 0.333333 0.444444
vt 0.333333 0.555556
vt 0.666667 0.333333
vt 0.555556 0.333333
vt 0.555555 0.666667
vt 0.333333 0.666667
vt 0.333333 0.666667
vt 0.333333 0.333333
vt 0.333333 0.444444
vt 0.444444 0.666667
vt 0.666667 0.444444
vt 0.333333 0.333333
vt 0.333333 0.333333
vt 0.555555 0.555556
vt 0.444444 0.555556
vt 0.444444 0.444444
vt 0.555555 0.444444
vn 0.0000 0.0000 1.0000
vn 0.7071 -0.7071 0.0000
vn 0.1855 -0.8842 0.4285
vn 0.1884 -0.9821 0.0000
vn 0.9821 -0.1884 0.0000
vn 0.8842 0.1855 0.4285
vn 0.8842 -0.1855 0.4285
vn -0.1884 0.9821 0.0000
vn 0.1855 0.8842 0.4285
vn 0.1884 0.9821 0.0000
vn 0.7071 0.7071 0.0000
vn 0.9821 0.1884 0.0000
vn 0.6366 -0.6366 0.4353
vn 0.6366 0.6366 0.4353
vn -0.9821 -0.1884 0.0000
vn -0.8842 0.1855 0.4285
vn -0.9821 0.1884 0.0000
vn -0.7071 0.7071 0.0000
vn -0.1855 0.8842 0.4285
vn -0.1855 -0.8842 0.4285
vn -0.1884 -0.9821 0.0000
vn -0.0457 -0.3630 0.9306
vn 0.2437 0.2437 0.9387
vn 0.3630 0.0457 0.9306
vn -0.8842 -0.1855 0.4285
vn -0.3630 0.0457 0.9306
vn 0.2437 -0.2437 0.9387
vn 0.0457 -0.3630 0.9306
vn 0.0457 0.3630 0.9306
vn -0.2437 0.2437 0.9387
vn -0.6366 0.6366 0.4353
vn -0.2437 -0.2437 0.9387
vn -0.3630 -0.0457 0.9306
vn -0.0457 0.3630 0.9306
vn 0.3630 -0.0457 0.9306
vn -0.6366 -0.6366 0.4353
vn -0.7071 -0.7071 0.0000
usemtl image
s 1
f 40/1/1 35/2/1 39/3/1
f 40/1/1 36/4/1 35/2/1
usemtl white
f 3/5/2 25/6/3 5/7/4
f 11/8/5 19/9/6 28/10/7
f 8/11/8 26/12/9 7/13/10
f 4/14/11 19/9/6 12/15/12
f 11/8/5 24/16/13 3/5/2
f 7/13/10 20/17/14 4/14/11
f 9/18/15 17/19/16 10/20/17
f 2/21/18 23/22/19 8/11/8
f 5/7/4 21/23/20 6/24/21
f 25/6/3 29/25/22 21/23/20
f 19/9/6 13/26/23 14/27/24
f 27/28/25 16/29/26 17/19/16
f 25/6/3 32/30/27 33/31/28
f 23/22/19 34/32/29 26/12/9
f 17/19/16 15/33/30 18/34/31
f 27/28/25 30/35/32 37/36/33
f 23/22/19 15/33/30 31/37/34
f 19/9/6 38/38/35 28/10/7
f 6/24/21 22/39/36 1/40/37
f 1/40/37 27/28/25 9/18/15
f 10/20/17 18/34/31 2/21/18
f 36/41/1 13/26/23 34/32/29
f 35/42/1 15/33/30 16/29/26
f 36/41/1 31/37/34 35/42/1
f 33/31/28 39/43/1 29/25/22
f 30/35/32 39/43/1 37/36/33
f 39/43/1 16/29/26 37/36/33
f 32/30/27 40/44/1 33/31/28
f 38/38/35 36/41/1 40/44/1
f 28/10/7 32/30/27 24/16/13
f 21/23/20 30/35/32 22/39/36
f 26/12/9 13/26/23 20/17/14
f 3/5/2 24/16/13 25/6/3
f 11/8/5 12/15/12 19/9/6
f 8/11/8 23/22/19 26/12/9
f 4/14/11 20/17/14 19/9/6
f 11/8/5 28/10/7 24/16/13
f 7/13/10 26/12/9 20/17/14
f 9/18/15 27/28/25 17/19/16
f 2/21/18 18/34/31 23/22/19
f 5/7/4 25/6/3 21/23/20
f 25/6/3 33/31/28 29/25/22
f 19/9/6 20/17/14 13/26/23
f 27/28/25 37/36/33 16/29/26
f 25/6/3 24/16/13 32/30/27
f 23/22/19 31/37/34 34/32/29
f 17/19/16 16/29/26 15/33/30
f 27/28/25 22/39/36 30/35/32
f 23/22/19 18/34/31 15/33/30
f 19/9/6 14/27/24 38/38/35
f 6/24/21 21/23/20 22/39/36
f 1/40/37 22/39/36 27/28/25
f 10/20/17 17/19/16 18/34/31
f 36/41/1 14/27/24 13/26/23
f 35/42/1 31/37/34 15/33/30
f 36/41/1 34/32/29 31/37/34
f 33/31/28 40/44/1 39/43/1
f 30/35/32 29/25/22 39/43/1
f 39/43/1 35/42/1 16/29/26
f 32/30/27 38/38/35 40/44/1
f 38/38/35 14/27/24 36/41/1
f 28/10/7 38/38/35 32/30/27
f 21/23/20 29/25/22 30/35/32
f 26/12/9 34/32/29 13/26/23
